<svg width="1236" height="445" viewBox="0 0 1236 445" fill="none" xmlns="http://www.w3.org/2000/svg">
<mask id="path-1-outside-1_11_543" maskUnits="userSpaceOnUse" x="1" y="0" width="1233" height="301" fill="black">
<rect fill="white" x="1" width="1233" height="301"/>
<path d="M131.63 270C112.765 270 96.8622 269.013 83.9202 267.039C70.9783 265.065 60.1202 260.458 51.346 253.219C42.5718 245.981 38.1847 234.903 38.1847 219.987C38.1847 210.555 42.4622 200.684 51.017 190.374C59.5718 179.845 69.3331 170.303 80.3009 161.748C91.2686 152.974 104.869 142.884 121.101 131.477C115.178 132.135 108.817 132.465 102.017 132.465C82.4944 132.465 65.8235 129.284 52.0041 122.923C38.4041 116.342 31.6041 105.484 31.6041 90.3484C31.6041 73.2387 39.3912 60.7355 54.9654 52.8387C70.7589 44.7226 91.5977 40.6645 117.482 40.6645C139.417 40.6645 158.391 42.2 174.404 45.271C190.636 48.1226 203.798 54.0452 213.888 63.0387C223.978 71.8129 229.023 84.4258 229.023 100.877C229.023 118.645 221.675 135.206 206.978 150.561C192.501 165.916 174.185 179.845 152.03 192.348C168.262 192.787 181.643 193.884 192.172 195.639C202.701 197.394 211.365 201.013 218.165 206.497C224.965 211.981 228.365 220.097 228.365 230.845C228.365 242.91 223.43 251.794 213.559 257.497C203.907 263.2 192.501 266.71 179.34 268.026C166.398 269.342 150.494 270 131.63 270ZM317.901 270.329C302.107 270.548 287.959 267.258 275.456 260.458C263.172 253.658 253.52 244.335 246.501 232.49C239.701 220.426 236.081 207.045 235.643 192.348C235.423 177.652 238.823 164.49 245.843 152.865C252.862 141.239 262.623 132.026 275.127 125.226C287.849 118.426 302.107 115.026 317.901 115.026C333.256 115.026 347.075 118.316 359.359 124.897C371.862 131.477 381.733 140.69 388.972 152.535C396.21 164.381 400.049 177.652 400.488 192.348C400.707 206.606 397.307 219.658 390.288 231.503C383.268 243.129 373.398 252.452 360.675 259.471C348.172 266.49 333.914 270.11 317.901 270.329ZM318.888 222.29C324.81 222.29 329.965 219.987 334.352 215.381C338.739 210.774 340.933 205.4 340.933 199.258C340.933 193.116 338.739 187.852 334.352 183.465C329.965 178.858 324.81 176.555 318.888 176.555C312.965 176.555 307.81 178.858 303.423 183.465C299.036 187.852 296.843 193.116 296.843 199.258C296.843 205.4 299.036 210.774 303.423 215.381C307.81 219.987 312.965 222.29 318.888 222.29ZM492.699 270.329C476.906 270.548 462.757 267.258 450.254 260.458C437.97 253.658 428.318 244.335 421.299 232.49C414.499 220.426 410.88 207.045 410.441 192.348C410.222 177.652 413.622 164.49 420.641 152.865C427.66 141.239 437.422 132.026 449.925 125.226C462.648 118.426 476.906 115.026 492.699 115.026C508.054 115.026 521.873 118.316 534.157 124.897C546.66 131.477 556.531 140.69 563.77 152.535C571.009 164.381 574.848 177.652 575.286 192.348C575.506 206.606 572.106 219.658 565.086 231.503C558.067 243.129 548.196 252.452 535.473 259.471C522.97 266.49 508.712 270.11 492.699 270.329ZM493.686 222.29C499.609 222.29 504.764 219.987 509.151 215.381C513.538 210.774 515.731 205.4 515.731 199.258C515.731 193.116 513.538 187.852 509.151 183.465C504.764 178.858 499.609 176.555 493.686 176.555C487.764 176.555 482.609 178.858 478.222 183.465C473.835 187.852 471.641 193.116 471.641 199.258C471.641 205.4 473.835 210.774 478.222 215.381C482.609 219.987 487.764 222.29 493.686 222.29ZM696.123 270C686.033 270 679.123 266.6 675.394 259.8C671.665 253 669.801 242.581 669.801 228.542C669.801 218.232 669.691 210.884 669.472 206.497C669.252 201.89 668.375 198.052 666.839 194.981C665.523 191.91 663.11 190.374 659.601 190.374C655.433 190.374 652.362 191.8 650.388 194.652C648.414 197.284 647.207 200.794 646.768 205.181C646.549 209.348 646.439 215.71 646.439 224.265C646.439 234.794 646.001 243.129 645.123 249.271C644.246 255.194 641.943 260.129 638.214 264.077C634.485 267.806 628.672 269.671 620.775 269.671C597.085 269.671 585.239 239.619 585.239 179.516C585.239 159.116 586.994 143.323 590.504 132.135C594.233 120.729 601.143 113.6 611.233 110.748C614.962 109.652 618.362 109.103 621.433 109.103C626.039 109.103 630.207 110.09 633.936 112.065C637.665 114.039 640.297 116.781 641.833 120.29C644.904 118.535 647.975 117.219 651.046 116.342C654.117 115.465 658.504 115.026 664.207 115.026C671.227 115.026 677.807 116.781 683.949 120.29C690.31 123.581 694.807 128.297 697.439 134.439C703.143 127.858 708.846 123.032 714.549 119.961C720.472 116.671 728.039 115.026 737.252 115.026C750.852 115.026 762.697 119.084 772.788 127.2C783.097 135.097 790.994 146.065 796.478 160.103C802.181 173.923 805.033 189.277 805.033 206.168C805.033 225.032 802.51 240.387 797.465 252.232C792.42 264.077 783.646 270 771.143 270C762.807 270 756.775 267.916 753.046 263.748C749.536 259.581 747.343 254.426 746.465 248.284C745.807 241.923 745.478 232.71 745.478 220.645C745.478 210.116 744.71 202.439 743.175 197.613C741.639 192.787 738.02 190.374 732.317 190.374C728.149 190.374 725.517 192.677 724.42 197.284C723.323 201.671 722.775 209.019 722.775 219.329C722.556 221.303 722.446 224.374 722.446 228.542C722.007 242.581 719.923 253 716.194 259.8C712.465 266.6 705.775 270 696.123 270ZM853.48 110.419C842.732 110.419 833.629 106.581 826.171 98.9032C818.713 91.0064 814.984 81.4645 814.984 70.2774C814.984 59.3097 818.713 49.9871 826.171 42.3097C833.629 34.4129 842.732 30.4645 853.48 30.4645C864.009 30.4645 873.003 34.4129 880.461 42.3097C888.138 49.9871 891.977 59.3097 891.977 70.2774C891.977 81.4645 888.138 91.0064 880.461 98.9032C873.003 106.581 864.009 110.419 853.48 110.419ZM853.48 270C844.487 270 837.797 267.477 833.409 262.432C829.242 257.168 826.39 249.381 824.855 239.071C823.538 228.542 822.88 213.626 822.88 194.323C822.88 178.09 823.648 165.258 825.184 155.826C826.938 146.394 830.009 139.374 834.397 134.768C838.784 130.161 845.145 127.858 853.48 127.858C862.474 127.858 869.055 130.49 873.222 135.755C877.609 140.8 880.461 148.587 881.777 159.116C883.313 169.426 884.08 184.232 884.08 203.535C884.08 219.768 883.203 232.6 881.448 242.032C879.913 251.465 876.951 258.484 872.564 263.09C868.177 267.697 861.816 270 853.48 270ZM984.649 270C968.416 270 954.049 266.819 941.545 260.458C929.042 254.097 919.281 245.213 912.262 233.806C905.462 222.181 902.061 209.129 902.061 194.652C902.061 180.394 905.462 167.232 912.262 155.168C919.281 143.103 928.932 133.452 941.216 126.213C953.5 118.974 967.429 115.355 983.003 115.355C997.042 115.355 1009.44 118.206 1020.18 123.91C1030.93 129.613 1039.16 137.181 1044.86 146.613C1050.56 155.826 1053.42 165.477 1053.42 175.568C1053.42 192.019 1047.16 204.084 1034.66 211.761C1022.38 219.219 1007.68 222.948 990.571 222.948C979.165 222.948 969.513 221.523 961.616 218.671C968.197 229.419 979.055 234.794 994.191 234.794C1000.33 234.794 1006.91 234.026 1013.93 232.49C1016.56 231.832 1019.09 231.503 1021.5 231.503C1026.33 231.503 1030.16 232.71 1033.02 235.123C1036.09 237.535 1037.62 240.826 1037.62 244.994C1037.62 251.794 1033.46 257.716 1025.12 262.761C1016.78 267.587 1003.29 270 984.649 270ZM962.603 178.529C964.578 181.6 967.21 183.903 970.5 185.439C974.01 186.755 977.849 187.413 982.016 187.413C986.842 187.413 991.01 186.316 994.52 184.123C998.249 181.929 1000.11 179.077 1000.11 175.568C1000.11 171.619 998.468 168.219 995.178 165.368C992.107 162.516 987.61 161.09 981.687 161.09C975.765 161.09 971.049 162.955 967.539 166.684C964.249 170.194 962.603 174.142 962.603 178.529ZM1126.54 270C1107.24 270 1091.88 266.819 1080.47 260.458C1069.07 254.097 1063.36 245.871 1063.36 235.781C1063.36 229.2 1065.56 224.155 1069.95 220.645C1074.55 216.916 1080.36 215.052 1087.38 215.052C1091.33 215.052 1094.51 215.6 1096.93 216.697C1099.34 217.794 1101.75 219.329 1104.16 221.303C1105.92 222.839 1107.35 223.935 1108.44 224.594C1109.76 225.252 1111.29 225.581 1113.05 225.581C1117.65 225.581 1119.96 223.935 1119.96 220.645C1119.96 217.574 1118.75 215.271 1116.34 213.735C1113.93 211.981 1109.76 209.897 1103.84 207.484C1098.35 205.29 1094.73 203.755 1092.98 202.877C1082.89 198.052 1075.43 192.348 1070.6 185.768C1065.78 179.187 1063.36 172.168 1063.36 164.71C1063.36 156.374 1066.33 148.477 1072.25 141.019C1078.39 133.342 1086.95 127.2 1097.91 122.594C1109.1 117.768 1121.93 115.355 1136.41 115.355C1148.91 115.355 1160.21 117.11 1170.3 120.619C1180.61 124.129 1188.73 128.955 1194.65 135.097C1200.57 141.019 1203.53 147.6 1203.53 154.839C1203.53 161.639 1201.34 166.794 1196.95 170.303C1192.78 173.813 1187.08 175.568 1179.84 175.568C1176.99 175.568 1174.69 175.348 1172.93 174.91C1171.4 174.252 1169.31 173.265 1166.68 171.948C1165.15 171.071 1163.5 170.303 1161.75 169.645C1160.21 168.987 1158.45 168.658 1156.48 168.658C1154.73 168.658 1153.19 169.316 1151.87 170.632C1150.56 171.729 1149.9 173.155 1149.9 174.91C1149.9 178.2 1152.31 180.613 1157.14 182.148C1169.86 186.316 1180.06 191.581 1187.74 197.942C1195.64 204.303 1199.58 213.077 1199.58 224.265C1199.58 238.523 1192.89 249.71 1179.51 257.826C1166.35 265.942 1148.69 270 1126.54 270Z"/>
</mask>
<path d="M131.63 270C112.765 270 96.8622 269.013 83.9202 267.039C70.9783 265.065 60.1202 260.458 51.346 253.219C42.5718 245.981 38.1847 234.903 38.1847 219.987C38.1847 210.555 42.4622 200.684 51.017 190.374C59.5718 179.845 69.3331 170.303 80.3009 161.748C91.2686 152.974 104.869 142.884 121.101 131.477C115.178 132.135 108.817 132.465 102.017 132.465C82.4944 132.465 65.8235 129.284 52.0041 122.923C38.4041 116.342 31.6041 105.484 31.6041 90.3484C31.6041 73.2387 39.3912 60.7355 54.9654 52.8387C70.7589 44.7226 91.5977 40.6645 117.482 40.6645C139.417 40.6645 158.391 42.2 174.404 45.271C190.636 48.1226 203.798 54.0452 213.888 63.0387C223.978 71.8129 229.023 84.4258 229.023 100.877C229.023 118.645 221.675 135.206 206.978 150.561C192.501 165.916 174.185 179.845 152.03 192.348C168.262 192.787 181.643 193.884 192.172 195.639C202.701 197.394 211.365 201.013 218.165 206.497C224.965 211.981 228.365 220.097 228.365 230.845C228.365 242.91 223.43 251.794 213.559 257.497C203.907 263.2 192.501 266.71 179.34 268.026C166.398 269.342 150.494 270 131.63 270ZM317.901 270.329C302.107 270.548 287.959 267.258 275.456 260.458C263.172 253.658 253.52 244.335 246.501 232.49C239.701 220.426 236.081 207.045 235.643 192.348C235.423 177.652 238.823 164.49 245.843 152.865C252.862 141.239 262.623 132.026 275.127 125.226C287.849 118.426 302.107 115.026 317.901 115.026C333.256 115.026 347.075 118.316 359.359 124.897C371.862 131.477 381.733 140.69 388.972 152.535C396.21 164.381 400.049 177.652 400.488 192.348C400.707 206.606 397.307 219.658 390.288 231.503C383.268 243.129 373.398 252.452 360.675 259.471C348.172 266.49 333.914 270.11 317.901 270.329ZM318.888 222.29C324.81 222.29 329.965 219.987 334.352 215.381C338.739 210.774 340.933 205.4 340.933 199.258C340.933 193.116 338.739 187.852 334.352 183.465C329.965 178.858 324.81 176.555 318.888 176.555C312.965 176.555 307.81 178.858 303.423 183.465C299.036 187.852 296.843 193.116 296.843 199.258C296.843 205.4 299.036 210.774 303.423 215.381C307.81 219.987 312.965 222.29 318.888 222.29ZM492.699 270.329C476.906 270.548 462.757 267.258 450.254 260.458C437.97 253.658 428.318 244.335 421.299 232.49C414.499 220.426 410.88 207.045 410.441 192.348C410.222 177.652 413.622 164.49 420.641 152.865C427.66 141.239 437.422 132.026 449.925 125.226C462.648 118.426 476.906 115.026 492.699 115.026C508.054 115.026 521.873 118.316 534.157 124.897C546.66 131.477 556.531 140.69 563.77 152.535C571.009 164.381 574.848 177.652 575.286 192.348C575.506 206.606 572.106 219.658 565.086 231.503C558.067 243.129 548.196 252.452 535.473 259.471C522.97 266.49 508.712 270.11 492.699 270.329ZM493.686 222.29C499.609 222.29 504.764 219.987 509.151 215.381C513.538 210.774 515.731 205.4 515.731 199.258C515.731 193.116 513.538 187.852 509.151 183.465C504.764 178.858 499.609 176.555 493.686 176.555C487.764 176.555 482.609 178.858 478.222 183.465C473.835 187.852 471.641 193.116 471.641 199.258C471.641 205.4 473.835 210.774 478.222 215.381C482.609 219.987 487.764 222.29 493.686 222.29ZM696.123 270C686.033 270 679.123 266.6 675.394 259.8C671.665 253 669.801 242.581 669.801 228.542C669.801 218.232 669.691 210.884 669.472 206.497C669.252 201.89 668.375 198.052 666.839 194.981C665.523 191.91 663.11 190.374 659.601 190.374C655.433 190.374 652.362 191.8 650.388 194.652C648.414 197.284 647.207 200.794 646.768 205.181C646.549 209.348 646.439 215.71 646.439 224.265C646.439 234.794 646.001 243.129 645.123 249.271C644.246 255.194 641.943 260.129 638.214 264.077C634.485 267.806 628.672 269.671 620.775 269.671C597.085 269.671 585.239 239.619 585.239 179.516C585.239 159.116 586.994 143.323 590.504 132.135C594.233 120.729 601.143 113.6 611.233 110.748C614.962 109.652 618.362 109.103 621.433 109.103C626.039 109.103 630.207 110.09 633.936 112.065C637.665 114.039 640.297 116.781 641.833 120.29C644.904 118.535 647.975 117.219 651.046 116.342C654.117 115.465 658.504 115.026 664.207 115.026C671.227 115.026 677.807 116.781 683.949 120.29C690.31 123.581 694.807 128.297 697.439 134.439C703.143 127.858 708.846 123.032 714.549 119.961C720.472 116.671 728.039 115.026 737.252 115.026C750.852 115.026 762.697 119.084 772.788 127.2C783.097 135.097 790.994 146.065 796.478 160.103C802.181 173.923 805.033 189.277 805.033 206.168C805.033 225.032 802.51 240.387 797.465 252.232C792.42 264.077 783.646 270 771.143 270C762.807 270 756.775 267.916 753.046 263.748C749.536 259.581 747.343 254.426 746.465 248.284C745.807 241.923 745.478 232.71 745.478 220.645C745.478 210.116 744.71 202.439 743.175 197.613C741.639 192.787 738.02 190.374 732.317 190.374C728.149 190.374 725.517 192.677 724.42 197.284C723.323 201.671 722.775 209.019 722.775 219.329C722.556 221.303 722.446 224.374 722.446 228.542C722.007 242.581 719.923 253 716.194 259.8C712.465 266.6 705.775 270 696.123 270ZM853.48 110.419C842.732 110.419 833.629 106.581 826.171 98.9032C818.713 91.0064 814.984 81.4645 814.984 70.2774C814.984 59.3097 818.713 49.9871 826.171 42.3097C833.629 34.4129 842.732 30.4645 853.48 30.4645C864.009 30.4645 873.003 34.4129 880.461 42.3097C888.138 49.9871 891.977 59.3097 891.977 70.2774C891.977 81.4645 888.138 91.0064 880.461 98.9032C873.003 106.581 864.009 110.419 853.48 110.419ZM853.48 270C844.487 270 837.797 267.477 833.409 262.432C829.242 257.168 826.39 249.381 824.855 239.071C823.538 228.542 822.88 213.626 822.88 194.323C822.88 178.09 823.648 165.258 825.184 155.826C826.938 146.394 830.009 139.374 834.397 134.768C838.784 130.161 845.145 127.858 853.48 127.858C862.474 127.858 869.055 130.49 873.222 135.755C877.609 140.8 880.461 148.587 881.777 159.116C883.313 169.426 884.08 184.232 884.08 203.535C884.08 219.768 883.203 232.6 881.448 242.032C879.913 251.465 876.951 258.484 872.564 263.09C868.177 267.697 861.816 270 853.48 270ZM984.649 270C968.416 270 954.049 266.819 941.545 260.458C929.042 254.097 919.281 245.213 912.262 233.806C905.462 222.181 902.061 209.129 902.061 194.652C902.061 180.394 905.462 167.232 912.262 155.168C919.281 143.103 928.932 133.452 941.216 126.213C953.5 118.974 967.429 115.355 983.003 115.355C997.042 115.355 1009.44 118.206 1020.18 123.91C1030.93 129.613 1039.16 137.181 1044.86 146.613C1050.56 155.826 1053.42 165.477 1053.42 175.568C1053.42 192.019 1047.16 204.084 1034.66 211.761C1022.38 219.219 1007.68 222.948 990.571 222.948C979.165 222.948 969.513 221.523 961.616 218.671C968.197 229.419 979.055 234.794 994.191 234.794C1000.33 234.794 1006.91 234.026 1013.93 232.49C1016.56 231.832 1019.09 231.503 1021.5 231.503C1026.33 231.503 1030.16 232.71 1033.02 235.123C1036.09 237.535 1037.62 240.826 1037.62 244.994C1037.62 251.794 1033.46 257.716 1025.12 262.761C1016.78 267.587 1003.29 270 984.649 270ZM962.603 178.529C964.578 181.6 967.21 183.903 970.5 185.439C974.01 186.755 977.849 187.413 982.016 187.413C986.842 187.413 991.01 186.316 994.52 184.123C998.249 181.929 1000.11 179.077 1000.11 175.568C1000.11 171.619 998.468 168.219 995.178 165.368C992.107 162.516 987.61 161.09 981.687 161.09C975.765 161.09 971.049 162.955 967.539 166.684C964.249 170.194 962.603 174.142 962.603 178.529ZM1126.54 270C1107.24 270 1091.88 266.819 1080.47 260.458C1069.07 254.097 1063.36 245.871 1063.36 235.781C1063.36 229.2 1065.56 224.155 1069.95 220.645C1074.55 216.916 1080.36 215.052 1087.38 215.052C1091.33 215.052 1094.51 215.6 1096.93 216.697C1099.34 217.794 1101.75 219.329 1104.16 221.303C1105.92 222.839 1107.35 223.935 1108.44 224.594C1109.76 225.252 1111.29 225.581 1113.05 225.581C1117.65 225.581 1119.96 223.935 1119.96 220.645C1119.96 217.574 1118.75 215.271 1116.34 213.735C1113.93 211.981 1109.76 209.897 1103.84 207.484C1098.35 205.29 1094.73 203.755 1092.98 202.877C1082.89 198.052 1075.43 192.348 1070.6 185.768C1065.78 179.187 1063.36 172.168 1063.36 164.71C1063.36 156.374 1066.33 148.477 1072.25 141.019C1078.39 133.342 1086.95 127.2 1097.91 122.594C1109.1 117.768 1121.93 115.355 1136.41 115.355C1148.91 115.355 1160.21 117.11 1170.3 120.619C1180.61 124.129 1188.73 128.955 1194.65 135.097C1200.57 141.019 1203.53 147.6 1203.53 154.839C1203.53 161.639 1201.34 166.794 1196.95 170.303C1192.78 173.813 1187.08 175.568 1179.84 175.568C1176.99 175.568 1174.69 175.348 1172.93 174.91C1171.4 174.252 1169.31 173.265 1166.68 171.948C1165.15 171.071 1163.5 170.303 1161.75 169.645C1160.21 168.987 1158.45 168.658 1156.48 168.658C1154.73 168.658 1153.19 169.316 1151.87 170.632C1150.56 171.729 1149.9 173.155 1149.9 174.91C1149.9 178.2 1152.31 180.613 1157.14 182.148C1169.86 186.316 1180.06 191.581 1187.74 197.942C1195.64 204.303 1199.58 213.077 1199.58 224.265C1199.58 238.523 1192.89 249.71 1179.51 257.826C1166.35 265.942 1148.69 270 1126.54 270Z" fill="white"/>
<path d="M83.9202 267.039L88.4442 237.382V237.382L83.9202 267.039ZM51.346 253.219L32.2545 276.361H32.2545L51.346 253.219ZM51.017 190.374L74.1039 209.531L74.2028 209.412L74.3004 209.292L51.017 190.374ZM80.3009 161.748L98.7518 185.403L98.8975 185.29L99.0417 185.174L80.3009 161.748ZM121.101 131.477L138.349 156.023L117.788 101.661L121.101 131.477ZM52.0041 122.923L38.9373 149.927L39.1973 150.053L39.4598 150.174L52.0041 122.923ZM54.9654 52.8387L68.5323 79.5957L68.605 79.5589L68.6775 79.5216L54.9654 52.8387ZM174.404 45.271L168.754 74.734L168.983 74.778L169.213 74.8185L174.404 45.271ZM213.888 63.0387L193.927 85.4341L194.064 85.5563L194.203 85.6769L213.888 63.0387ZM206.978 150.561L185.306 129.818L185.228 129.899L185.151 129.981L206.978 150.561ZM152.03 192.348L137.285 166.222L43.0335 219.413L151.219 222.337L152.03 192.348ZM192.172 195.639L187.24 225.231H187.24L192.172 195.639ZM218.165 206.497L199.333 229.849L199.333 229.849L218.165 206.497ZM213.559 257.497L198.551 231.521L198.423 231.594L198.297 231.669L213.559 257.497ZM179.34 268.026L176.354 238.175L176.329 238.177L176.304 238.18L179.34 268.026ZM131.63 270V240C113.681 240 99.3948 239.052 88.4442 237.382L83.9202 267.039L79.3963 296.696C94.3295 298.974 111.85 300 131.63 300V270ZM83.9202 267.039L88.4442 237.382C80.0354 236.099 74.4353 233.376 70.4375 230.078L51.346 253.219L32.2545 276.361C45.8051 287.54 61.9212 294.03 79.3963 296.696L83.9202 267.039ZM51.346 253.219L70.4375 230.078C70.146 229.838 69.7873 229.496 69.3673 228.436C68.8685 227.176 68.1847 224.581 68.1847 219.987H38.1847H8.18475C8.18475 240.868 14.5564 261.76 32.2545 276.361L51.346 253.219ZM38.1847 219.987H68.1847C68.1847 219.98 68.171 216.681 74.1039 209.531L51.017 190.374L27.9302 171.217C16.7533 184.687 8.18475 201.129 8.18475 219.987H38.1847ZM51.017 190.374L74.3004 209.292C81.3925 200.563 89.5231 192.602 98.7518 185.403L80.3009 161.748L61.8499 138.093C49.1431 148.005 37.7512 159.127 27.7336 171.456L51.017 190.374ZM80.3009 161.748L99.0417 185.174C109.372 176.91 122.437 167.205 138.349 156.023L121.101 131.477L103.853 106.932C87.3003 118.563 73.1656 129.038 61.56 138.322L80.3009 161.748ZM121.101 131.477L117.788 101.661C113.106 102.181 107.861 102.465 102.017 102.465V132.465V162.465C109.773 162.465 117.251 162.09 124.414 161.294L121.101 131.477ZM102.017 132.465V102.465C85.6435 102.465 73.4857 99.7851 64.5484 95.6711L52.0041 122.923L39.4598 150.174C58.1613 158.783 79.3453 162.465 102.017 162.465V132.465ZM52.0041 122.923L65.0709 95.9178C63.6986 95.2538 62.9418 94.6971 62.5725 94.3814C62.2274 94.0864 62.1377 93.9334 62.1296 93.9205C62.1213 93.9073 62.0201 93.7551 61.9024 93.3054C61.7767 92.8249 61.6041 91.8882 61.6041 90.3484H31.6041H1.6041C1.6041 102.513 4.38378 114.757 11.2786 125.767C18.1754 136.779 27.981 144.626 38.9373 149.927L52.0041 122.923ZM31.6041 90.3484H61.6041C61.6041 86.4779 62.4322 84.7648 62.9094 83.9985C63.4085 83.1972 64.7174 81.5301 68.5323 79.5957L54.9654 52.8387L41.3984 26.0817C29.6392 32.0441 19.2674 40.577 11.9794 52.2789C4.66954 64.0159 1.6041 77.1092 1.6041 90.3484H31.6041ZM54.9654 52.8387L68.6775 79.5216C78.735 74.3532 94.3426 70.6645 117.482 70.6645V40.6645V10.6645C88.8527 10.6645 62.7829 15.092 41.2533 26.1558L54.9654 52.8387ZM117.482 40.6645V70.6645C138.124 70.6645 155.114 72.1183 168.754 74.734L174.404 45.271L180.055 15.8079C161.668 12.2817 140.71 10.6645 117.482 10.6645V40.6645ZM174.404 45.271L169.213 74.8185C181.16 76.9173 188.828 80.8899 193.927 85.4341L213.888 63.0387L233.849 40.6433C218.767 27.2005 200.112 19.3279 179.595 15.7234L174.404 45.271ZM213.888 63.0387L194.203 85.6769C196.262 87.4676 199.023 90.9363 199.023 100.877H229.023H259.023C259.023 77.9153 251.695 56.1582 233.573 40.4005L213.888 63.0387ZM229.023 100.877H199.023C199.023 109.44 195.774 118.88 185.306 129.818L206.978 150.561L228.651 171.305C247.576 151.533 259.023 127.851 259.023 100.877H229.023ZM206.978 150.561L185.151 129.981C173.116 142.745 157.335 154.907 137.285 166.222L152.03 192.348L166.775 218.475C191.035 204.783 211.886 189.087 228.806 171.142L206.978 150.561ZM152.03 192.348L151.219 222.337C166.703 222.756 178.581 223.787 187.24 225.231L192.172 195.639L197.104 166.047C184.705 163.98 169.822 162.818 152.84 162.359L152.03 192.348ZM192.172 195.639L187.24 225.231C193.798 226.324 197.354 228.253 199.333 229.849L218.165 206.497L236.998 183.144C225.377 173.773 211.603 168.464 197.104 166.047L192.172 195.639ZM218.165 206.497L199.333 229.849C199.149 229.701 198.888 229.45 198.628 229.103C198.369 228.758 198.216 228.458 198.145 228.288C198.007 227.959 198.365 228.593 198.365 230.845H228.365H258.365C258.365 213.325 252.475 195.626 236.998 183.144L218.165 206.497ZM228.365 230.845H198.365C198.365 231.82 198.266 232.306 198.239 232.417C198.226 232.473 198.229 232.448 198.262 232.36C198.297 232.27 198.354 232.141 198.439 231.987C198.525 231.833 198.623 231.682 198.728 231.545C198.832 231.409 198.923 231.311 198.982 231.252C199.109 231.127 199.027 231.246 198.551 231.521L213.559 257.497L228.567 283.473C248.36 272.037 258.365 252.859 258.365 230.845H228.365ZM213.559 257.497L198.297 231.669C193.012 234.792 185.952 237.215 176.354 238.175L179.34 268.026L182.325 297.877C199.05 296.204 214.803 291.608 228.821 283.325L213.559 257.497ZM179.34 268.026L176.304 238.18C164.708 239.359 149.888 240 131.63 240V270V300C151.101 300 168.087 299.325 182.375 297.872L179.34 268.026ZM317.901 270.329L317.49 240.332L317.484 240.332L317.901 270.329ZM275.456 260.458L260.926 286.705L261.024 286.759L261.122 286.813L275.456 260.458ZM246.501 232.49L220.366 247.221L220.526 247.504L220.692 247.784L246.501 232.49ZM235.643 192.348L205.646 192.796L205.649 193.02L205.656 193.243L235.643 192.348ZM245.843 152.865L220.161 137.358V137.358L245.843 152.865ZM275.127 125.226L260.985 98.7679L260.889 98.8192L260.793 98.8713L275.127 125.226ZM359.359 124.897L345.192 151.341L345.289 151.393L345.386 151.444L359.359 124.897ZM388.972 152.535L363.373 168.179V168.179L388.972 152.535ZM400.488 192.348L430.484 191.887L430.481 191.67L430.474 191.453L400.488 192.348ZM390.288 231.503L415.97 247.009L416.034 246.904L416.097 246.797L390.288 231.503ZM360.675 259.471L346.183 233.204L346.086 233.257L345.989 233.311L360.675 259.471ZM334.352 183.465L312.628 204.154L312.88 204.419L313.139 204.678L334.352 183.465ZM303.423 183.465L324.637 204.678L324.895 204.419L325.147 204.154L303.423 183.465ZM303.423 215.381L281.699 236.07L281.699 236.07L303.423 215.381ZM317.901 270.329L317.484 240.332C306.261 240.488 297.288 238.182 289.789 234.104L275.456 260.458L261.122 286.813C278.63 296.334 297.954 300.609 318.317 300.326L317.901 270.329ZM275.456 260.458L289.985 234.211C282.271 229.941 276.554 224.359 272.309 217.196L246.501 232.49L220.692 247.784C230.486 264.312 244.072 277.375 260.926 286.705L275.456 260.458ZM246.501 232.49L272.635 217.76C268.368 210.188 265.932 201.603 265.629 191.453L235.643 192.348L205.656 193.243C206.23 212.488 211.034 230.664 220.366 247.221L246.501 232.49ZM235.643 192.348L265.639 191.901C265.497 182.34 267.648 174.792 271.525 168.371L245.843 152.865L220.161 137.358C209.999 154.189 205.35 172.963 205.646 192.796L235.643 192.348ZM245.843 152.865L271.525 168.371C275.656 161.527 281.401 155.963 289.46 151.58L275.127 125.226L260.793 98.8713C243.845 108.089 230.068 120.95 220.161 137.358L245.843 152.865ZM275.127 125.226L289.268 151.684C297.237 147.425 306.562 145.026 317.901 145.026V115.026V85.0258C297.652 85.0258 278.462 89.427 260.985 98.7679L275.127 125.226ZM317.901 115.026V145.026C328.826 145.026 337.697 147.326 345.192 151.341L359.359 124.897L373.525 98.4524C356.453 89.3064 337.685 85.0258 317.901 85.0258V115.026ZM359.359 124.897L345.386 151.444C353.192 155.552 359.008 161.036 363.373 168.179L388.972 152.535L414.57 136.892C404.458 120.345 390.532 107.402 373.331 98.3492L359.359 124.897ZM388.972 152.535L363.373 168.179C367.73 175.308 370.209 183.441 370.501 193.243L400.488 192.348L430.474 191.453C429.89 171.862 424.691 153.454 414.57 136.892L388.972 152.535ZM400.488 192.348L370.491 192.81C370.629 201.738 368.571 209.304 364.479 216.209L390.288 231.503L416.097 246.797C426.043 230.012 430.786 211.475 430.484 191.887L400.488 192.348ZM390.288 231.503L364.606 215.997C360.498 222.801 354.629 228.543 346.183 233.204L360.675 259.471L375.167 285.738C392.166 276.36 406.039 263.457 415.97 247.009L390.288 231.503ZM360.675 259.471L345.989 233.311C338.34 237.605 329.094 240.173 317.49 240.332L317.901 270.329L318.312 300.326C338.734 300.046 358.003 295.375 375.361 285.63L360.675 259.471ZM318.888 222.29V252.29C333.675 252.29 346.495 246.131 356.076 236.07L334.352 215.381L312.628 194.691C312.79 194.521 313.542 193.805 314.958 193.173C316.419 192.52 317.843 192.29 318.888 192.29V222.29ZM334.352 215.381L356.076 236.07C365.566 226.106 370.933 213.403 370.933 199.258H340.933H310.933C310.933 198.671 311.056 197.676 311.512 196.558C311.961 195.459 312.487 194.84 312.628 194.691L334.352 215.381ZM340.933 199.258H370.933C370.933 185.069 365.515 172.2 355.566 162.251L334.352 183.465L313.139 204.678C312.807 204.346 312.134 203.533 311.596 202.242C311.055 200.944 310.933 199.84 310.933 199.258H340.933ZM334.352 183.465L356.076 162.775C346.495 152.714 333.675 146.555 318.888 146.555V176.555V206.555C317.843 206.555 316.419 206.325 314.958 205.673C313.542 205.04 312.79 204.324 312.628 204.154L334.352 183.465ZM318.888 176.555V146.555C304.101 146.555 291.281 152.714 281.699 162.775L303.423 183.465L325.147 204.154C324.986 204.324 324.233 205.04 322.818 205.673C321.357 206.325 319.933 206.555 318.888 206.555V176.555ZM303.423 183.465L282.21 162.251C272.261 172.2 266.843 185.069 266.843 199.258H296.843H326.843C326.843 199.84 326.721 200.944 326.18 202.242C325.642 203.533 324.969 204.345 324.637 204.678L303.423 183.465ZM296.843 199.258H266.843C266.843 213.403 272.21 226.106 281.699 236.07L303.423 215.381L325.147 194.691C325.289 194.84 325.815 195.459 326.263 196.558C326.72 197.676 326.843 198.671 326.843 199.258H296.843ZM303.423 215.381L281.699 236.07C291.281 246.131 304.101 252.29 318.888 252.29V222.29V192.29C319.933 192.29 321.357 192.52 322.818 193.173C324.233 193.805 324.986 194.521 325.147 194.691L303.423 215.381ZM492.699 270.329L492.288 240.332L492.282 240.332L492.699 270.329ZM450.254 260.458L435.724 286.705L435.822 286.759L435.921 286.813L450.254 260.458ZM421.299 232.49L395.165 247.221L395.324 247.504L395.49 247.784L421.299 232.49ZM410.441 192.348L380.444 192.796L380.448 193.02L380.454 193.243L410.441 192.348ZM420.641 152.865L394.959 137.358V137.358L420.641 152.865ZM449.925 125.226L435.784 98.7679L435.688 98.8192L435.592 98.8713L449.925 125.226ZM534.157 124.897L519.991 151.341L520.087 151.393L520.185 151.444L534.157 124.897ZM563.77 152.535L538.172 168.179V168.179L563.77 152.535ZM575.286 192.348L605.283 191.887L605.279 191.67L605.273 191.453L575.286 192.348ZM565.086 231.503L590.768 247.009L590.832 246.904L590.895 246.797L565.086 231.503ZM535.473 259.471L520.981 233.204L520.884 233.257L520.787 233.311L535.473 259.471ZM509.151 183.465L487.427 204.154L487.679 204.419L487.938 204.678L509.151 183.465ZM478.222 183.465L499.435 204.678L499.694 204.419L499.946 204.154L478.222 183.465ZM478.222 215.381L456.498 236.07V236.07L478.222 215.381ZM492.699 270.329L492.282 240.332C481.059 240.488 472.086 238.182 464.587 234.104L450.254 260.458L435.921 286.813C453.428 296.334 472.752 300.609 493.116 300.326L492.699 270.329ZM450.254 260.458L464.783 234.211C457.069 229.941 451.352 224.359 447.108 217.196L421.299 232.49L395.49 247.784C405.285 264.312 418.871 277.375 435.724 286.705L450.254 260.458ZM421.299 232.49L447.434 217.76C443.166 210.188 440.731 201.603 440.428 191.453L410.441 192.348L380.454 193.243C381.029 212.488 385.832 230.664 395.165 247.221L421.299 232.49ZM410.441 192.348L440.438 191.901C440.295 182.34 442.446 174.792 446.323 168.371L420.641 152.865L394.959 137.358C384.797 154.189 380.148 172.963 380.444 192.796L410.441 192.348ZM420.641 152.865L446.323 168.371C450.455 161.527 456.2 155.963 464.258 151.58L449.925 125.226L435.592 98.8713C418.644 108.089 404.866 120.95 394.959 137.358L420.641 152.865ZM449.925 125.226L464.066 151.684C472.035 147.425 481.361 145.026 492.699 145.026V115.026V85.0258C472.45 85.0258 453.26 89.427 435.784 98.7679L449.925 125.226ZM492.699 115.026V145.026C503.625 145.026 512.495 147.326 519.991 151.341L534.157 124.897L548.324 98.4524C531.251 89.3064 512.483 85.0258 492.699 85.0258V115.026ZM534.157 124.897L520.185 151.444C527.99 155.552 533.807 161.036 538.172 168.179L563.77 152.535L589.369 136.892C579.256 120.345 565.331 107.402 548.13 98.3492L534.157 124.897ZM563.77 152.535L538.172 168.179C542.528 175.308 545.007 183.441 545.3 193.243L575.286 192.348L605.273 191.453C604.688 171.862 599.49 153.454 589.369 136.892L563.77 152.535ZM575.286 192.348L545.29 192.81C545.427 201.738 543.37 209.304 539.277 216.209L565.086 231.503L590.895 246.797C600.842 230.012 605.584 211.475 605.283 191.887L575.286 192.348ZM565.086 231.503L539.404 215.997C535.296 222.801 529.428 228.543 520.981 233.204L535.473 259.471L549.966 285.738C566.964 276.36 580.837 263.457 590.768 247.009L565.086 231.503ZM535.473 259.471L520.787 233.311C513.139 237.605 503.892 240.173 492.288 240.332L492.699 270.329L493.11 300.326C513.532 300.046 532.801 295.375 550.159 285.63L535.473 259.471ZM493.686 222.29V252.29C508.473 252.29 521.293 246.131 530.875 236.07L509.151 215.381L487.427 194.691C487.588 194.521 488.341 193.805 489.756 193.173C491.217 192.52 492.641 192.29 493.686 192.29V222.29ZM509.151 215.381L530.875 236.07C540.364 226.106 545.731 213.403 545.731 199.258H515.731H485.731C485.731 198.671 485.854 197.676 486.311 196.558C486.759 195.459 487.285 194.84 487.427 194.691L509.151 215.381ZM515.731 199.258H545.731C545.731 185.069 540.313 172.2 530.364 162.251L509.151 183.465L487.938 204.678C487.605 204.346 486.932 203.533 486.394 202.242C485.853 200.944 485.731 199.84 485.731 199.258H515.731ZM509.151 183.465L530.875 162.775C521.293 152.714 508.473 146.555 493.686 146.555V176.555V206.555C492.641 206.555 491.217 206.325 489.756 205.673C488.341 205.04 487.588 204.324 487.427 204.154L509.151 183.465ZM493.686 176.555V146.555C478.899 146.555 466.079 152.714 456.498 162.775L478.222 183.465L499.946 204.154C499.784 204.324 499.032 205.04 497.616 205.673C496.155 206.325 494.731 206.555 493.686 206.555V176.555ZM478.222 183.465L457.008 162.251C447.06 172.2 441.641 185.069 441.641 199.258H471.641H501.641C501.641 199.84 501.519 200.944 500.979 202.242C500.44 203.533 499.767 204.345 499.435 204.678L478.222 183.465ZM471.641 199.258H441.641C441.641 213.403 447.008 226.106 456.498 236.07L478.222 215.381L499.946 194.691C500.087 194.84 500.613 195.459 501.062 196.558C501.518 197.676 501.641 198.671 501.641 199.258H471.641ZM478.222 215.381L456.498 236.07C466.079 246.131 478.899 252.29 493.686 252.29V222.29V192.29C494.731 192.29 496.155 192.52 497.616 193.173C499.032 193.805 499.784 194.521 499.946 194.691L478.222 215.381ZM675.394 259.8L701.699 245.375V245.375L675.394 259.8ZM669.472 206.497L639.506 207.924L639.507 207.959L639.509 207.995L669.472 206.497ZM666.839 194.981L639.265 206.798L639.612 207.609L640.007 208.397L666.839 194.981ZM650.388 194.652L674.388 212.652L674.729 212.196L675.054 211.728L650.388 194.652ZM646.768 205.181L616.917 202.196L616.847 202.898L616.81 203.604L646.768 205.181ZM645.123 249.271L674.799 253.667L674.811 253.591L674.822 253.514L645.123 249.271ZM638.214 264.077L659.427 285.291L659.73 284.988L660.024 284.676L638.214 264.077ZM590.504 132.135L561.989 122.813L561.933 122.984L561.88 123.155L590.504 132.135ZM611.233 110.748L619.392 139.618L619.545 139.574L619.698 139.529L611.233 110.748ZM641.833 120.29L614.348 132.315L627.73 162.902L656.717 146.338L641.833 120.29ZM651.046 116.342L659.287 145.188L659.288 145.188L651.046 116.342ZM683.949 120.29L669.065 146.338L669.609 146.649L670.166 146.937L683.949 120.29ZM697.439 134.439L669.865 146.256L688.736 190.288L720.11 154.087L697.439 134.439ZM714.549 119.961L728.772 146.375L728.946 146.282L729.118 146.186L714.549 119.961ZM772.788 127.2L753.985 150.576L754.263 150.8L754.546 151.016L772.788 127.2ZM796.478 160.103L768.534 171.019L768.638 171.284L768.747 171.548L796.478 160.103ZM753.046 263.748L730.099 283.072L730.388 283.417L730.689 283.752L753.046 263.748ZM746.465 248.284L716.625 251.371L716.684 251.95L716.767 252.527L746.465 248.284ZM743.175 197.613L714.587 206.709L714.587 206.709L743.175 197.613ZM724.42 197.284L753.524 204.56L753.565 204.396L753.604 204.232L724.42 197.284ZM722.775 219.329L752.591 222.642L752.775 220.991V219.329H722.775ZM722.446 228.542L752.431 229.479L752.446 229.011V228.542H722.446ZM716.194 259.8L689.89 245.375V245.375L716.194 259.8ZM696.123 270V240C694.302 240 694.879 239.676 696.619 240.532C697.527 240.979 698.56 241.659 699.549 242.607C700.537 243.555 701.24 244.538 701.699 245.375L675.394 259.8L649.09 274.225C659.7 293.572 678.904 300 696.123 300V270ZM675.394 259.8L701.699 245.375C701.852 245.655 701.284 244.694 700.73 241.601C700.192 238.593 699.801 234.324 699.801 228.542H669.801H639.801C639.801 244.144 641.684 260.721 649.09 274.225L675.394 259.8ZM669.801 228.542H699.801C699.801 218.216 699.695 210.206 699.434 204.999L669.472 206.497L639.509 207.995C639.687 211.562 639.801 218.249 639.801 228.542H669.801ZM669.472 206.497L699.438 205.07C699.084 197.647 697.599 189.417 693.672 181.564L666.839 194.981L640.007 208.397C639.562 207.507 639.421 206.927 639.403 206.848C639.387 206.776 639.466 207.099 639.506 207.924L669.472 206.497ZM666.839 194.981L694.414 183.163C691.788 177.036 687.262 170.742 680.149 166.216C673.139 161.755 665.761 160.374 659.601 160.374V190.374V220.374C656.95 220.374 652.534 219.761 647.936 216.836C643.236 213.845 640.575 209.854 639.265 206.798L666.839 194.981ZM659.601 190.374V160.374C647.852 160.374 634.476 164.931 625.722 177.575L650.388 194.652L675.054 211.728C673.08 214.578 670.233 217.062 666.805 218.654C663.577 220.152 660.896 220.374 659.601 220.374V190.374ZM650.388 194.652L626.388 176.652C620.195 184.909 617.721 194.157 616.917 202.196L646.768 205.181L676.62 208.166C676.693 207.43 676.632 209.659 674.388 212.652L650.388 194.652ZM646.768 205.181L616.81 203.604C616.547 208.596 616.439 215.608 616.439 224.265H646.439H676.439C676.439 215.811 676.551 210.101 676.727 206.757L646.768 205.181ZM646.439 224.265H616.439C616.439 234.206 616.011 240.927 615.425 245.028L645.123 249.271L674.822 253.514C675.991 245.332 676.439 235.382 676.439 224.265H646.439ZM645.123 249.271L615.447 244.874C615.392 245.249 615.362 245.135 615.552 244.728C615.754 244.296 616.058 243.844 616.403 243.479L638.214 264.077L660.024 284.676C668.403 275.804 673.118 265.018 674.799 253.667L645.123 249.271ZM638.214 264.077L617 242.864C619.006 240.858 620.974 240.001 621.894 239.706C622.672 239.457 622.476 239.671 620.775 239.671V269.671V299.671C632.715 299.671 647.805 296.913 659.427 285.291L638.214 264.077ZM620.775 269.671V239.671C621.805 239.671 623.52 240.216 624.6 241.129C625.128 241.576 623.845 240.728 622.033 236.131C618.216 226.445 615.239 208.475 615.239 179.516H585.239H555.239C555.239 210.661 558.186 237.768 566.213 258.133C570.324 268.563 576.445 278.984 585.856 286.943C595.82 295.37 607.9 299.671 620.775 299.671V269.671ZM585.239 179.516H615.239C615.239 160.264 616.964 148.016 619.128 141.116L590.504 132.135L561.88 123.155C557.025 138.629 555.239 157.969 555.239 179.516H585.239ZM590.504 132.135L619.019 141.458C619.758 139.195 620.336 138.792 620.025 139.113C619.883 139.259 619.676 139.428 619.45 139.56C619.233 139.687 619.174 139.679 619.392 139.618L611.233 110.748L603.074 81.8791C581.853 87.8763 568.301 103.505 561.989 122.813L590.504 132.135ZM611.233 110.748L619.698 139.529C620.503 139.293 621.049 139.181 621.357 139.132C621.664 139.082 621.676 139.103 621.433 139.103V109.103V79.1032C614.854 79.1032 608.553 80.266 602.768 81.9674L611.233 110.748ZM621.433 109.103V139.103C621.582 139.103 621.445 139.118 621.1 139.036C620.743 138.951 620.32 138.801 619.9 138.578L633.936 112.065L647.973 85.5509C639.531 81.0818 630.474 79.1032 621.433 79.1032V109.103ZM633.936 112.065L619.9 138.578C619.248 138.233 618.192 137.551 617.066 136.378C615.914 135.178 614.986 133.773 614.348 132.315L641.833 120.29L669.318 108.266C664.786 97.908 657.047 90.3549 647.973 85.5509L633.936 112.065ZM641.833 120.29L656.717 146.338C657.916 145.653 658.768 145.336 659.287 145.188L651.046 116.342L642.804 87.4962C637.182 89.1026 631.892 91.4183 626.949 94.243L641.833 120.29ZM651.046 116.342L659.288 145.188C658.596 145.385 658.592 145.309 659.625 145.206C660.588 145.11 662.08 145.026 664.207 145.026V115.026V85.0258C657.535 85.0258 649.872 85.4768 642.804 87.4962L651.046 116.342ZM664.207 115.026V145.026C665.963 145.026 667.419 145.397 669.065 146.338L683.949 120.29L698.833 94.243C688.195 88.1643 676.49 85.0258 664.207 85.0258V115.026ZM683.949 120.29L670.166 146.937C670.438 147.077 670.557 147.164 670.566 147.171C670.573 147.176 670.498 147.121 670.38 146.997C670.262 146.873 670.142 146.723 670.038 146.565C669.934 146.407 669.881 146.294 669.865 146.256L697.439 134.439L725.014 122.621C719.438 109.61 709.793 99.8824 697.732 93.6438L683.949 120.29ZM697.439 134.439L720.11 154.087C724.201 149.366 727.165 147.241 728.772 146.375L714.549 119.961L700.326 93.5471C690.527 98.8238 682.084 106.35 674.769 114.791L697.439 134.439ZM714.549 119.961L729.118 146.186C729.267 146.104 731.382 145.026 737.252 145.026V115.026V85.0258C724.697 85.0258 711.676 87.2384 699.98 93.7366L714.549 119.961ZM737.252 115.026V145.026C744.384 145.026 749.506 146.974 753.985 150.576L772.788 127.2L791.591 103.824C775.889 91.1942 757.321 85.0258 737.252 85.0258V115.026ZM772.788 127.2L754.546 151.016C759.845 155.075 764.72 161.253 768.534 171.019L796.478 160.103L824.422 149.188C817.269 130.876 806.35 115.118 791.03 103.384L772.788 127.2ZM796.478 160.103L768.747 171.548C772.77 181.296 775.033 192.696 775.033 206.168H805.033H835.033C835.033 185.858 831.593 166.549 824.209 148.659L796.478 160.103ZM805.033 206.168H775.033C775.033 222.711 772.769 233.658 769.865 240.476L797.465 252.232L825.066 263.988C832.252 247.117 835.033 227.353 835.033 206.168H805.033ZM797.465 252.232L769.865 240.476C769.475 241.392 769.232 241.677 769.302 241.587C769.395 241.467 769.724 241.092 770.317 240.693C770.596 240.504 770.88 240.346 771.152 240.222C771.422 240.099 771.638 240.027 771.776 239.988C772.055 239.911 771.902 240 771.143 240V270V300C782.269 300 793.696 297.301 803.885 290.424C814.013 283.587 820.771 274.073 825.066 263.988L797.465 252.232ZM771.143 270V240C769.345 240 769.23 239.759 770.162 240.081C771.286 240.469 773.404 241.51 775.403 243.745L753.046 263.748L730.689 283.752C742.42 296.863 758.493 300 771.143 300V270ZM753.046 263.748L775.993 244.424C776.091 244.54 776.179 244.663 776.251 244.782C776.323 244.9 776.361 244.982 776.373 245.01C776.4 245.074 776.273 244.804 776.164 244.041L746.465 248.284L716.767 252.527C718.326 263.439 722.49 274.037 730.099 283.072L753.046 263.748ZM746.465 248.284L776.306 245.197C775.809 240.395 775.478 232.411 775.478 220.645H745.478H715.478C715.478 233.009 715.805 243.45 716.625 251.371L746.465 248.284ZM745.478 220.645H775.478C775.478 209.614 774.784 198.013 771.763 188.517L743.175 197.613L714.587 206.709C714.485 206.389 714.779 207.254 715.051 209.975C715.308 212.539 715.478 216.046 715.478 220.645H745.478ZM743.175 197.613L771.763 188.517C769.284 180.728 764.33 172.809 755.95 167.222C747.891 161.85 739.275 160.374 732.317 160.374V190.374V220.374C731.062 220.374 727.107 220.105 722.668 217.145C717.907 213.971 715.53 209.672 714.587 206.709L743.175 197.613ZM732.317 190.374V160.374C724.43 160.374 715.256 162.704 707.462 169.524C700.054 176.006 696.726 184.075 695.236 190.335L724.42 197.284L753.604 204.232C753.211 205.886 751.747 210.501 746.972 214.679C741.81 219.196 736.036 220.374 732.317 220.374V190.374ZM724.42 197.284L695.316 190.008C693.247 198.285 692.775 208.877 692.775 219.329H722.775H752.775C752.775 214.65 752.901 211.023 753.103 208.318C753.319 205.428 753.565 204.397 753.524 204.56L724.42 197.284ZM722.775 219.329L692.958 216.016C692.545 219.733 692.446 224.193 692.446 228.542H722.446H752.446C752.446 226.699 752.47 225.263 752.509 224.184C752.55 223.041 752.596 222.598 752.591 222.642L722.775 219.329ZM722.446 228.542L692.461 227.605C692.278 233.458 691.768 237.845 691.137 241.002C690.488 244.247 689.86 245.43 689.89 245.375L716.194 259.8L742.499 274.225C749.667 261.153 751.946 244.997 752.431 229.479L722.446 228.542ZM716.194 259.8L689.89 245.375C690.285 244.654 690.92 243.741 691.856 242.825C692.798 241.903 693.821 241.197 694.788 240.705C696.684 239.742 697.535 240 696.123 240V270V300C713.574 300 732.142 293.11 742.499 274.225L716.194 259.8ZM826.171 98.9032L804.36 119.502L804.505 119.655L804.652 119.807L826.171 98.9032ZM826.171 42.3097L847.689 63.2132L847.836 63.0618L847.981 62.9084L826.171 42.3097ZM880.461 42.3097L858.651 62.9084L858.945 63.2199L859.248 63.5229L880.461 42.3097ZM880.461 98.9032L858.951 77.9909L858.943 77.9996L880.461 98.9032ZM833.409 262.432L809.888 281.053L810.317 281.596L810.771 282.118L833.409 262.432ZM824.855 239.071L795.086 242.792L795.13 243.142L795.182 243.49L824.855 239.071ZM825.184 155.826L795.69 150.339L795.628 150.671L795.573 151.006L825.184 155.826ZM834.397 134.768L856.121 155.457V155.457L834.397 134.768ZM873.222 135.755L849.701 154.376L850.13 154.918L850.584 155.44L873.222 135.755ZM881.777 159.116L852.009 162.837L852.053 163.187L852.104 163.535L881.777 159.116ZM881.448 242.032L851.954 236.545L851.892 236.878L851.838 237.212L881.448 242.032ZM872.564 263.09L850.84 242.401V242.401L872.564 263.09ZM853.48 110.419V80.4194C850.801 80.4194 849.471 79.8344 847.689 77.9996L826.171 98.9032L804.652 119.807C817.786 133.327 834.663 140.419 853.48 140.419V110.419ZM826.171 98.9032L847.981 78.3045C845.955 76.1588 844.984 74.0588 844.984 70.2774H814.984H784.984C784.984 88.8702 791.471 105.854 804.36 119.502L826.171 98.9032ZM814.984 70.2774H844.984C844.984 66.9008 845.818 65.1394 847.689 63.2132L826.171 42.3097L804.652 21.4061C791.607 34.8348 784.984 51.7186 784.984 70.2774H814.984ZM826.171 42.3097L847.981 62.9084C849.84 60.9403 851.084 60.4645 853.48 60.4645V30.4645V0.464508C834.38 0.464508 817.418 7.88544 804.36 21.711L826.171 42.3097ZM853.48 30.4645V60.4645C855.466 60.4645 856.658 60.7982 858.651 62.9084L880.461 42.3097L902.271 21.711C889.348 8.02762 872.553 0.464508 853.48 0.464508V30.4645ZM880.461 42.3097L859.248 63.5229C861.235 65.5103 861.977 67.1754 861.977 70.2774H891.977H921.977C921.977 51.444 915.042 34.4639 901.674 21.0965L880.461 42.3097ZM891.977 70.2774H861.977C861.977 73.7917 861.089 75.7917 858.951 77.9909L880.461 98.9032L901.971 119.816C915.188 106.221 921.977 89.1373 921.977 70.2774H891.977ZM880.461 98.9032L858.943 77.9996C857.028 79.9706 855.752 80.4194 853.48 80.4194V110.419V140.419C872.267 140.419 888.978 133.191 901.979 119.807L880.461 98.9032ZM853.48 270V240C851.705 240 851.517 239.741 852.302 240.037C852.719 240.195 853.34 240.484 854.055 240.972C854.777 241.466 855.459 242.07 856.048 242.747L833.409 262.432L810.771 282.118C822.644 295.771 838.961 300 853.48 300V270ZM833.409 262.432L856.931 243.811C857.231 244.191 856.891 243.899 856.315 242.328C855.74 240.757 855.068 238.283 854.527 234.652L824.855 239.071L795.182 243.49C797.101 256.373 801.141 270.004 809.888 281.053L833.409 262.432ZM824.855 239.071L854.623 235.35C853.538 226.67 852.88 213.212 852.88 194.323H822.88H792.88C792.88 214.04 793.539 230.414 795.086 242.792L824.855 239.071ZM822.88 194.323H852.88C852.88 178.756 853.635 167.763 854.794 160.646L825.184 155.826L795.573 151.006C793.661 162.753 792.88 177.424 792.88 194.323H822.88ZM825.184 155.826L854.677 161.313C855.237 158.308 855.865 156.479 856.288 155.512C856.701 154.568 856.773 154.772 856.121 155.457L834.397 134.768L812.672 114.078C802.725 124.523 798.003 137.905 795.69 150.339L825.184 155.826ZM834.397 134.768L856.121 155.457C855.564 156.042 854.936 156.559 854.28 156.98C853.63 157.398 853.065 157.651 852.671 157.793C851.917 158.067 852.016 157.858 853.48 157.858V127.858V97.8581C839.604 97.8581 824.331 101.837 812.672 114.078L834.397 134.768ZM853.48 127.858V157.858C855.145 157.858 855.085 158.113 854.019 157.687C853.458 157.462 852.705 157.081 851.882 156.476C851.051 155.866 850.31 155.146 849.701 154.376L873.222 135.755L896.744 117.134C885.095 102.419 868.305 97.8581 853.48 97.8581V127.858ZM873.222 135.755L850.584 155.44C849.878 154.628 850.021 154.44 850.481 155.695C850.945 156.962 851.558 159.233 852.009 162.837L881.777 159.116L911.546 155.395C909.889 142.14 905.834 127.54 895.86 116.069L873.222 135.755ZM881.777 159.116L852.104 163.535C853.311 171.636 854.08 184.692 854.08 203.535H884.08H914.08C914.08 183.773 913.314 167.216 911.45 154.697L881.777 159.116ZM884.08 203.535H854.08C854.08 219.001 853.221 229.738 851.954 236.545L881.448 242.032L910.942 247.52C913.185 235.462 914.08 220.534 914.08 203.535H884.08ZM881.448 242.032L851.838 237.212C851.361 240.144 850.79 241.866 850.435 242.71C850.093 243.521 850.091 243.187 850.84 242.401L872.564 263.09L894.288 283.78C904.451 273.109 909.01 259.432 911.058 246.853L881.448 242.032ZM872.564 263.09L850.84 242.401C851.397 241.816 852.025 241.3 852.681 240.878C853.331 240.46 853.896 240.207 854.29 240.065C855.044 239.792 854.945 240 853.48 240V270V300C867.357 300 882.63 296.021 894.288 283.78L872.564 263.09ZM941.545 260.458L955.149 233.72V233.72L941.545 260.458ZM912.261 233.806L886.366 248.953L886.536 249.243L886.712 249.529L912.261 233.806ZM912.261 155.168L886.331 140.081L886.228 140.258L886.127 140.437L912.261 155.168ZM941.216 126.213L956.447 152.059L956.447 152.059L941.216 126.213ZM1020.18 123.91L1034.25 97.4092V97.4092L1020.18 123.91ZM1044.86 146.613L1019.19 162.135L1019.27 162.27L1019.35 162.404L1044.86 146.613ZM1034.66 211.761L1050.23 237.405L1050.3 237.366L1050.36 237.326L1034.66 211.761ZM961.616 218.671L971.806 190.454L891.385 161.413L936.031 234.336L961.616 218.671ZM1013.93 232.49L1020.34 261.797L1020.78 261.702L1021.21 261.595L1013.93 232.49ZM1033.02 235.123L1013.64 258.024L1014.05 258.376L1014.48 258.712L1033.02 235.123ZM1025.12 262.761L1040.15 288.724L1040.4 288.578L1040.65 288.426L1025.12 262.761ZM962.603 178.529H932.603V187.34L937.368 194.752L962.603 178.529ZM970.5 185.439L957.814 212.624L958.872 213.118L959.967 213.529L970.5 185.439ZM994.52 184.123L979.309 158.265L978.961 158.469L978.62 158.683L994.52 184.123ZM995.178 165.368L974.764 187.352L975.141 187.702L975.53 188.038L995.178 165.368ZM967.539 166.684L945.693 146.123L945.673 146.144L945.653 146.166L967.539 166.684ZM984.649 270V240C972.4 240 962.821 237.623 955.149 233.72L941.545 260.458L927.942 287.196C945.276 296.016 964.432 300 984.649 300V270ZM941.545 260.458L955.149 233.72C947.321 229.737 941.797 224.561 937.811 218.084L912.261 233.806L886.712 249.529C896.764 265.865 910.763 278.456 927.942 287.196L941.545 260.458ZM912.261 233.806L938.157 218.66C934.246 211.973 932.062 204.218 932.062 194.652H902.062H872.062C872.062 214.04 876.677 232.388 886.366 248.953L912.261 233.806ZM902.062 194.652H932.062C932.062 185.395 934.207 177.33 938.396 169.898L912.261 155.168L886.127 140.437C876.716 157.134 872.062 175.392 872.062 194.652H902.062ZM912.261 155.168L938.192 170.255C942.568 162.733 948.493 156.746 956.447 152.059L941.216 126.213L925.986 100.367C909.372 110.157 895.994 123.474 886.331 140.081L912.261 155.168ZM941.216 126.213L956.447 152.059C963.696 147.788 972.276 145.355 983.003 145.355V115.355V85.3548C962.582 85.3548 943.305 90.1608 925.986 100.367L941.216 126.213ZM983.003 115.355V145.355C992.898 145.355 1000.33 147.336 1006.12 150.41L1020.18 123.91L1034.25 97.4092C1018.54 89.077 1001.19 85.3548 983.003 85.3548V115.355ZM1020.18 123.91L1006.12 150.41C1012.59 153.843 1016.58 157.817 1019.19 162.135L1044.86 146.613L1070.53 131.09C1061.74 116.544 1049.27 105.383 1034.25 97.4092L1020.18 123.91ZM1044.86 146.613L1019.35 162.404C1022.35 167.237 1023.42 171.47 1023.42 175.568H1053.42H1083.42C1083.42 159.485 1078.78 144.414 1070.37 130.822L1044.86 146.613ZM1053.42 175.568H1023.42C1023.42 183.098 1021.37 184.72 1018.96 186.196L1034.66 211.761L1050.36 237.326C1072.96 223.447 1083.42 200.941 1083.42 175.568H1053.42ZM1034.66 211.761L1019.09 186.118C1012.33 190.224 1003.25 192.948 990.571 192.948V222.948V252.948C1012.12 252.948 1032.43 248.214 1050.23 237.405L1034.66 211.761ZM990.571 222.948V192.948C981.477 192.948 975.496 191.787 971.806 190.454L961.616 218.671L951.427 246.888C963.53 251.258 976.853 252.948 990.571 252.948V222.948ZM961.616 218.671L936.031 234.336C949.231 255.896 971.062 264.794 994.191 264.794V234.794V204.794C990.115 204.794 988.393 204.069 988.003 203.876C987.809 203.78 987.749 203.723 987.719 203.696C987.684 203.664 987.496 203.486 987.202 203.006L961.616 218.671ZM994.191 234.794V264.794C1002.82 264.794 1011.56 263.718 1020.34 261.797L1013.93 232.49L1007.52 203.183C1002.26 204.334 997.85 204.794 994.191 204.794V234.794ZM1013.93 232.49L1021.21 261.595C1021.75 261.459 1021.82 261.503 1021.5 261.503V231.503V201.503C1016.35 201.503 1011.38 202.206 1006.66 203.386L1013.93 232.49ZM1021.5 231.503V261.503C1021.34 261.503 1017.62 261.395 1013.64 258.024L1033.02 235.123L1052.39 212.221C1042.71 204.024 1031.31 201.503 1021.5 201.503V231.503ZM1033.02 235.123L1014.48 258.712C1012.6 257.237 1010.66 255.021 1009.29 252.087C1007.94 249.212 1007.62 246.646 1007.62 244.994H1037.62H1067.62C1067.62 232.333 1062.4 220.06 1051.55 211.533L1033.02 235.123ZM1037.62 244.994H1007.62C1007.62 243.572 1007.85 242.062 1008.33 240.59C1008.81 239.135 1009.43 238.022 1009.96 237.271C1010.94 235.884 1011.36 236.02 1009.59 237.096L1025.12 262.761L1040.65 288.426C1053.7 280.529 1067.62 266.465 1067.62 244.994H1037.62ZM1025.12 262.761L1010.09 236.799C1010.09 236.796 1009.97 236.865 1009.7 236.986C1009.42 237.106 1009.02 237.268 1008.46 237.453C1007.32 237.831 1005.69 238.262 1003.47 238.659C998.961 239.465 992.786 240 984.649 240V270V300C1004.48 300 1024.68 297.683 1040.15 288.724L1025.12 262.761ZM962.603 178.529L937.368 194.752C942.388 202.561 949.359 208.679 957.814 212.624L970.5 185.439L983.187 158.253C984.005 158.635 984.922 159.203 985.813 159.982C986.704 160.761 987.373 161.581 987.839 162.306L962.603 178.529ZM970.5 185.439L959.967 213.529C967.201 216.241 974.652 217.413 982.016 217.413V187.413V157.413C981.514 157.413 981.213 157.373 981.08 157.351C980.953 157.329 980.95 157.317 981.034 157.349L970.5 185.439ZM982.016 187.413V217.413C991.515 217.413 1001.4 215.202 1010.42 209.563L994.52 184.123L978.62 158.683C979.529 158.114 980.413 157.766 981.127 157.578C981.812 157.398 982.156 157.413 982.016 157.413V187.413ZM994.52 184.123L1009.73 209.981C1020.14 203.86 1030.11 192.307 1030.11 175.568H1000.11H970.113C970.113 171.677 971.246 167.529 973.606 163.921C975.79 160.58 978.235 158.896 979.309 158.265L994.52 184.123ZM1000.11 175.568H1030.11C1030.11 161.962 1023.93 150.589 1014.83 142.697L995.178 165.368L975.53 188.038C974.563 187.2 973.077 185.609 971.874 183.123C970.636 180.564 970.113 177.908 970.113 175.568H1000.11ZM995.178 165.368L1015.59 143.384C1005.04 133.586 992.052 131.09 981.687 131.09V161.09V191.09C983.167 191.09 979.174 191.447 974.764 187.352L995.178 165.368ZM981.687 161.09V131.09C968.908 131.09 955.774 135.412 945.693 146.123L967.539 166.684L989.385 187.245C988.148 188.559 986.522 189.682 984.738 190.388C983.048 191.056 981.878 191.09 981.687 191.09V161.09ZM967.539 166.684L945.653 146.166C937.698 154.651 932.603 165.755 932.603 178.529H962.603H992.603C992.603 180.192 992.27 182.039 991.53 183.816C990.809 185.546 989.933 186.66 989.425 187.202L967.539 166.684ZM1080.47 260.458L1095.09 234.257V234.257L1080.47 260.458ZM1069.95 220.645L1088.69 244.071L1088.75 244.017L1088.82 243.962L1069.95 220.645ZM1096.93 216.697L1084.51 244.008V244.008L1096.93 216.697ZM1104.16 221.303L1123.92 198.726L1123.55 198.399L1123.16 198.085L1104.16 221.303ZM1108.44 224.594L1093.01 250.318L1093.99 250.911L1095.03 251.426L1108.44 224.594ZM1116.34 213.735L1098.69 237.998L1099.45 238.545L1100.23 239.045L1116.34 213.735ZM1103.84 207.484L1115.15 179.701L1115.07 179.665L1114.98 179.63L1103.84 207.484ZM1092.98 202.877L1106.39 176.045L1106.16 175.927L1105.92 175.813L1092.98 202.877ZM1070.6 185.768L1046.41 203.509V203.509L1070.6 185.768ZM1072.25 141.019L1048.82 122.278L1048.79 122.321L1048.76 122.363L1072.25 141.019ZM1097.91 122.594L1109.53 150.253L1109.66 150.197L1109.8 150.14L1097.91 122.594ZM1170.3 120.619L1160.44 148.954L1160.54 148.987L1160.63 149.019L1170.3 120.619ZM1194.65 135.097L1173.05 155.921L1173.24 156.117L1173.44 156.31L1194.65 135.097ZM1196.95 170.303L1178.21 146.877L1177.92 147.113L1177.63 147.356L1196.95 170.303ZM1172.93 174.91L1161.11 202.484L1163.32 203.431L1165.66 204.014L1172.93 174.91ZM1166.68 171.948L1151.8 197.996L1152.52 198.409L1153.26 198.781L1166.68 171.948ZM1161.75 169.645L1149.93 197.219L1150.56 197.492L1151.21 197.735L1161.75 169.645ZM1151.87 170.632L1171.08 193.679L1172.13 192.808L1173.09 191.845L1151.87 170.632ZM1157.14 182.148L1166.48 153.639L1166.36 153.599L1166.23 153.561L1157.14 182.148ZM1187.74 197.942L1168.6 221.043L1168.76 221.175L1168.92 221.305L1187.74 197.942ZM1179.51 257.826L1163.95 232.176L1163.86 232.233L1163.77 232.291L1179.51 257.826ZM1126.54 270V240C1110.08 240 1100.39 237.216 1095.09 234.257L1080.47 260.458L1065.86 286.659C1083.37 296.423 1104.39 300 1126.54 300V270ZM1080.47 260.458L1095.09 234.257C1092.21 232.653 1091.87 231.809 1092.3 232.424C1092.53 232.764 1092.84 233.333 1093.08 234.08C1093.31 234.825 1093.36 235.437 1093.36 235.781H1063.36H1033.36C1033.36 260.011 1048.19 276.806 1065.86 286.659L1080.47 260.458ZM1063.36 235.781H1093.36C1093.36 235.813 1093.36 237.106 1092.52 239.023C1091.63 241.077 1090.22 242.843 1088.69 244.071L1069.95 220.645L1051.2 197.219C1038.44 207.431 1033.36 221.834 1033.36 235.781H1063.36ZM1069.95 220.645L1088.82 243.962C1088.52 244.21 1088.17 244.438 1087.82 244.63C1087.46 244.821 1087.15 244.943 1086.92 245.016C1086.46 245.164 1086.53 245.052 1087.38 245.052V215.052V185.052C1074.81 185.052 1061.96 188.511 1051.07 197.328L1069.95 220.645ZM1087.38 215.052V245.052C1088.01 245.052 1088.05 245.098 1087.63 245.027C1087.23 244.956 1086.08 244.72 1084.51 244.008L1096.93 216.697L1109.34 189.386C1101.6 185.867 1093.7 185.052 1087.38 185.052V215.052ZM1096.93 216.697L1084.51 244.008C1084.19 243.862 1084.42 243.91 1085.17 244.522L1104.16 221.303L1123.16 198.085C1119.08 194.748 1114.49 191.725 1109.34 189.386L1096.93 216.697ZM1104.16 221.303L1084.41 243.881C1086.61 245.802 1089.61 248.282 1093.01 250.318L1108.44 224.594L1123.88 198.869C1124.08 198.993 1124.25 199.101 1124.39 199.186C1124.52 199.272 1124.62 199.341 1124.69 199.391C1124.76 199.44 1124.81 199.475 1124.83 199.492C1124.85 199.509 1124.86 199.512 1124.84 199.499C1124.8 199.471 1124.71 199.395 1124.55 199.261C1124.39 199.128 1124.18 198.951 1123.92 198.726L1104.16 221.303ZM1108.44 224.594L1095.03 251.426C1101.24 254.532 1107.53 255.581 1113.05 255.581V225.581V195.581C1115.06 195.581 1118.28 195.972 1121.86 197.761L1108.44 224.594ZM1113.05 225.581V255.581C1118.02 255.581 1127.13 254.857 1135.67 248.759C1146.06 241.333 1149.96 230.175 1149.96 220.645H1119.96H1089.96C1089.96 217.981 1090.43 214.213 1092.34 210.118C1094.33 205.864 1097.34 202.404 1100.79 199.935C1107.03 195.482 1112.69 195.581 1113.05 195.581V225.581ZM1119.96 220.645H1149.96C1149.96 208.224 1144.25 195.938 1132.44 188.426L1116.34 213.735L1100.23 239.045C1097.47 237.286 1094.55 234.484 1092.48 230.535C1090.46 226.677 1089.96 223.082 1089.96 220.645H1119.96ZM1116.34 213.735L1133.98 189.473C1128.43 185.437 1121.37 182.234 1115.15 179.701L1103.84 207.484L1092.52 235.267C1095.01 236.282 1096.79 237.09 1097.99 237.689C1099.32 238.354 1099.35 238.473 1098.69 237.998L1116.34 213.735ZM1103.84 207.484L1114.98 179.63C1112.34 178.576 1110.27 177.727 1108.72 177.07C1107.95 176.742 1107.36 176.485 1106.93 176.291C1106.47 176.085 1106.33 176.011 1106.39 176.045L1092.98 202.877L1079.56 229.71C1082.62 231.239 1087.41 233.223 1092.69 235.338L1103.84 207.484ZM1092.98 202.877L1105.92 175.813C1098.72 172.368 1095.82 169.418 1094.8 168.027L1070.6 185.768L1046.41 203.509C1055.04 215.279 1067.06 223.735 1080.03 229.941L1092.98 202.877ZM1070.6 185.768L1094.8 168.027C1093.37 166.081 1093.36 165.181 1093.36 164.71H1063.36H1033.36C1033.36 179.154 1038.19 192.293 1046.41 203.509L1070.6 185.768ZM1063.36 164.71H1093.36C1093.36 164.099 1093.4 162.623 1095.74 159.676L1072.25 141.019L1048.76 122.363C1039.25 134.331 1033.36 148.649 1033.36 164.71H1063.36ZM1072.25 141.019L1095.67 159.76C1098.09 156.737 1102.22 153.324 1109.53 150.253L1097.91 122.594L1086.3 94.9341C1071.67 101.076 1058.69 109.947 1048.82 122.278L1072.25 141.019ZM1097.91 122.594L1109.8 150.14C1116.59 147.208 1125.26 145.355 1136.41 145.355V115.355V85.3548C1118.6 85.3548 1101.61 88.3277 1086.03 95.0472L1097.91 122.594ZM1136.41 115.355V145.355C1146.12 145.355 1154.01 146.717 1160.44 148.954L1170.3 120.619L1180.16 92.2844C1166.41 87.5027 1151.71 85.3548 1136.41 85.3548V115.355ZM1170.3 120.619L1160.63 149.019C1167.63 151.403 1171.24 154.036 1173.05 155.921L1194.65 135.097L1216.24 114.273C1206.22 103.874 1193.58 96.8553 1179.97 92.2198L1170.3 120.619ZM1194.65 135.097L1173.44 156.31C1174.23 157.107 1174.18 157.297 1173.95 156.785C1173.84 156.538 1173.73 156.208 1173.64 155.819C1173.56 155.431 1173.53 155.09 1173.53 154.839H1203.53H1233.53C1233.53 138.386 1226.45 124.476 1215.86 113.884L1194.65 135.097ZM1203.53 154.839H1173.53C1173.53 155.045 1173.5 153.899 1174.28 152.058C1175.13 150.056 1176.54 148.213 1178.21 146.877L1196.95 170.303L1215.69 193.729C1228.7 183.32 1233.53 168.628 1233.53 154.839H1203.53ZM1196.95 170.303L1177.63 147.356C1178.91 146.279 1180.1 145.772 1180.73 145.578C1181.27 145.412 1181.08 145.568 1179.84 145.568V175.568V205.568C1191.81 205.568 1205.14 202.626 1216.28 193.251L1196.95 170.303ZM1179.84 175.568V145.568C1179.51 145.568 1179.26 145.561 1179.08 145.554C1178.9 145.546 1178.82 145.538 1178.82 145.538C1178.82 145.539 1178.85 145.541 1178.91 145.548C1178.96 145.555 1179.04 145.566 1179.15 145.584C1179.37 145.619 1179.73 145.686 1180.21 145.805L1172.93 174.91L1165.66 204.014C1170.75 205.287 1175.77 205.568 1179.84 205.568V175.568ZM1172.93 174.91L1184.75 147.335C1184.01 147.019 1182.53 146.334 1180.1 145.116L1166.68 171.948L1153.26 198.781C1156.09 200.195 1158.78 201.484 1161.11 202.484L1172.93 174.91ZM1166.68 171.948L1181.56 145.901C1178.56 144.182 1175.45 142.743 1172.28 141.555L1161.75 169.645L1151.21 197.735C1151.55 197.863 1151.73 197.96 1151.8 197.996L1166.68 171.948ZM1161.75 169.645L1173.56 142.071C1167.68 139.549 1161.79 138.658 1156.48 138.658V168.658V198.658C1155.12 198.658 1152.74 198.425 1149.93 197.219L1161.75 169.645ZM1156.48 168.658V138.658C1146.25 138.658 1137.22 142.856 1130.66 149.419L1151.87 170.632L1173.09 191.845C1171.35 193.578 1168.95 195.389 1165.83 196.726C1162.68 198.078 1159.46 198.658 1156.48 198.658V168.658ZM1151.87 170.632L1132.67 147.586C1124.32 154.54 1119.9 164.501 1119.9 174.91H1149.9H1179.9C1179.9 177.86 1179.33 181.427 1177.63 185.096C1175.93 188.785 1173.53 191.639 1171.08 193.679L1151.87 170.632ZM1149.9 174.91H1119.9C1119.9 184.835 1123.9 193.801 1130.5 200.4C1136.34 206.243 1143.1 209.163 1148.04 210.736L1157.14 182.148L1166.23 153.561C1166.35 153.598 1169.49 154.544 1172.92 157.974C1177.11 162.161 1179.9 168.275 1179.9 174.91H1149.9ZM1157.14 182.148L1147.8 210.658C1158.1 214.031 1164.63 217.752 1168.6 221.043L1187.74 197.942L1206.88 174.841C1195.5 165.409 1181.62 158.601 1166.48 153.639L1157.14 182.148ZM1187.74 197.942L1168.92 221.305C1169.07 221.425 1169.16 221.515 1169.22 221.57C1169.27 221.624 1169.29 221.652 1169.3 221.655C1169.3 221.656 1169.29 221.646 1169.28 221.627C1169.27 221.608 1169.26 221.598 1169.26 221.604C1169.27 221.605 1169.34 221.76 1169.41 222.148C1169.49 222.547 1169.58 223.231 1169.58 224.265H1199.58H1229.58C1229.58 205.066 1222.32 187.273 1206.56 174.579L1187.74 197.942ZM1199.58 224.265H1169.58C1169.58 226.496 1169.12 227.442 1168.82 227.951C1168.44 228.584 1167.3 230.148 1163.95 232.176L1179.51 257.826L1195.07 283.476C1216.37 270.56 1229.58 250.183 1229.58 224.265H1199.58ZM1179.51 257.826L1163.77 232.291C1156.96 236.486 1145.41 240 1126.54 240V270V300C1151.97 300 1175.74 295.398 1195.26 283.361L1179.51 257.826Z" fill="black" mask="url(#path-1-outside-1_11_543)"/>
<ellipse cx="317.5" cy="200" rx="11" ry="13" fill="black"/>
<ellipse cx="493.5" cy="200" rx="11" ry="13" fill="black"/>
<ellipse cx="981.5" cy="173.5" rx="20" ry="14.5" fill="black"/>
<path d="M26.576 443.8C25.5626 443.8 24.7893 443.64 24.256 443.32C23.776 443.053 23.4559 442.653 23.296 442.12C23.136 441.533 23.056 440.867 23.056 440.12V391.56C23.056 390.867 23.136 390.253 23.296 389.72C23.5093 389.187 23.8826 388.76 24.4159 388.44C24.9493 388.12 25.6959 387.96 26.656 387.96H44.176C46.736 387.96 49.0826 388.36 51.216 389.16C53.4026 389.907 55.296 391.08 56.896 392.68C58.5493 394.227 59.8293 396.12 60.736 398.36C61.6426 400.6 62.096 403.187 62.096 406.12C62.096 409 61.6426 411.56 60.736 413.8C59.8293 416.04 58.5493 417.933 56.896 419.48C55.2426 420.973 53.3226 422.12 51.136 422.92C49.0026 423.72 46.656 424.12 44.096 424.12H30.336V440.2C30.336 440.947 30.2293 441.587 30.0159 442.12C29.856 442.653 29.5093 443.053 28.976 443.32C28.496 443.64 27.696 443.8 26.576 443.8ZM30.336 416.84H44.176C46.3093 416.84 48.176 416.44 49.776 415.64C51.376 414.787 52.6293 413.56 53.536 411.96C54.4426 410.307 54.896 408.307 54.896 405.96C54.896 403.72 54.4693 401.8 53.616 400.2C52.7626 398.6 51.5093 397.373 49.856 396.52C48.256 395.667 46.336 395.24 44.096 395.24H30.336V416.84ZM105.663 443.8C104.596 443.8 103.796 443.64 103.263 443.32C102.783 443.053 102.463 442.653 102.303 442.12C102.143 441.533 102.063 440.867 102.063 440.12V391.56C102.063 390.173 102.329 389.24 102.863 388.76C103.449 388.227 104.463 387.96 105.903 387.96H138.063C138.809 387.96 139.449 388.04 139.983 388.2C140.516 388.36 140.916 388.707 141.183 389.24C141.449 389.773 141.583 390.573 141.583 391.64C141.583 392.707 141.423 393.507 141.103 394.04C140.836 394.52 140.436 394.84 139.903 395C139.369 395.16 138.729 395.24 137.983 395.24H109.263V411.8H129.263C130.009 411.8 130.623 411.88 131.103 412.04C131.636 412.2 132.036 412.52 132.303 413C132.569 413.48 132.703 414.227 132.703 415.24C132.703 416.2 132.569 416.92 132.303 417.4C132.036 417.88 131.636 418.2 131.103 418.36C130.569 418.467 129.903 418.52 129.103 418.52H109.263V436.6H138.063C138.809 436.6 139.449 436.68 139.983 436.84C140.516 437 140.916 437.347 141.183 437.88C141.449 438.36 141.583 439.133 141.583 440.2C141.583 441.267 141.423 442.067 141.103 442.6C140.836 443.08 140.436 443.4 139.903 443.56C139.369 443.72 138.729 443.8 137.983 443.8H105.663ZM223.187 387.96C223.88 387.96 224.44 388.04 224.867 388.2C225.347 388.36 225.72 388.68 225.987 389.16C226.253 389.587 226.387 390.307 226.387 391.32C226.387 392.28 226.227 393 225.907 393.48C225.64 393.96 225.267 394.28 224.787 394.44C224.307 394.547 223.72 394.6 223.027 394.6H206.467V440.28C206.467 440.973 206.36 441.587 206.147 442.12C205.987 442.653 205.64 443.053 205.107 443.32C204.627 443.64 203.88 443.8 202.867 443.8C201.8 443.8 201 443.64 200.467 443.32C199.987 443.053 199.667 442.653 199.507 442.12C199.4 441.533 199.347 440.893 199.347 440.2V394.6H182.547C181.853 394.6 181.267 394.547 180.787 394.44C180.307 394.28 179.933 393.96 179.667 393.48C179.4 393 179.267 392.28 179.267 391.32C179.267 390.307 179.373 389.587 179.587 389.16C179.853 388.68 180.227 388.36 180.707 388.2C181.24 388.04 181.827 387.96 182.467 387.96H223.187ZM319.504 443.8C318.491 443.8 317.717 443.64 317.184 443.32C316.704 443.053 316.384 442.653 316.224 442.12C316.064 441.533 315.984 440.867 315.984 440.12V391.56C315.984 390.867 316.064 390.253 316.224 389.72C316.437 389.187 316.811 388.76 317.344 388.44C317.877 388.12 318.624 387.96 319.584 387.96H337.104C339.664 387.96 342.011 388.36 344.144 389.16C346.331 389.907 348.224 391.08 349.824 392.68C351.477 394.227 352.757 396.12 353.664 398.36C354.571 400.6 355.024 403.187 355.024 406.12C355.024 409 354.571 411.56 353.664 413.8C352.757 416.04 351.477 417.933 349.824 419.48C348.171 420.973 346.251 422.12 344.064 422.92C341.931 423.72 339.584 424.12 337.024 424.12H323.264V440.2C323.264 440.947 323.157 441.587 322.944 442.12C322.784 442.653 322.437 443.053 321.904 443.32C321.424 443.64 320.624 443.8 319.504 443.8ZM323.264 416.84H337.104C339.237 416.84 341.104 416.44 342.704 415.64C344.304 414.787 345.557 413.56 346.464 411.96C347.371 410.307 347.824 408.307 347.824 405.96C347.824 403.72 347.397 401.8 346.544 400.2C345.691 398.6 344.437 397.373 342.784 396.52C341.184 395.667 339.264 395.24 337.024 395.24H323.264V416.84ZM434.351 443.8C433.338 443.8 432.564 443.64 432.031 443.32C431.551 443.053 431.231 442.653 431.071 442.12C430.911 441.533 430.831 440.867 430.831 440.12V391.56C430.831 390.813 430.911 390.173 431.071 389.64C431.231 389.107 431.578 388.707 432.111 388.44C432.644 388.12 433.418 387.96 434.431 387.96C435.498 387.96 436.271 388.12 436.751 388.44C437.284 388.707 437.631 389.107 437.791 389.64C437.951 390.173 438.031 390.84 438.031 391.64V440.2C438.031 440.947 437.924 441.587 437.711 442.12C437.551 442.653 437.204 443.053 436.671 443.32C436.191 443.64 435.418 443.8 434.351 443.8ZM398.351 443.8C397.284 443.8 396.484 443.64 395.951 443.32C395.471 443.053 395.151 442.653 394.991 442.12C394.831 441.533 394.751 440.867 394.751 440.12V391.56C394.751 390.813 394.831 390.173 394.991 389.64C395.204 389.107 395.551 388.707 396.031 388.44C396.564 388.12 397.364 387.96 398.431 387.96C399.444 387.96 400.191 388.12 400.671 388.44C401.204 388.707 401.551 389.107 401.711 389.64C401.871 390.173 401.951 390.84 401.951 391.64V440.2C401.951 440.947 401.871 441.587 401.711 442.12C401.551 442.653 401.204 443.053 400.671 443.32C400.138 443.64 399.364 443.8 398.351 443.8ZM398.671 418.52V411.8H432.111L432.031 418.52H398.671ZM503.913 444.36C500.126 444.36 496.553 443.64 493.193 442.2C489.886 440.76 486.953 438.76 484.393 436.2C481.886 433.587 479.913 430.6 478.473 427.24C477.033 423.88 476.313 420.253 476.313 416.36C476.313 412.413 477.006 408.707 478.393 405.24C479.779 401.72 481.699 398.653 484.153 396.04C486.659 393.427 489.539 391.373 492.793 389.88C496.046 388.387 499.513 387.64 503.193 387.64C507.033 387.64 510.606 388.36 513.913 389.8C517.273 391.24 520.179 393.267 522.633 395.88C525.139 398.44 527.113 401.453 528.553 404.92C529.993 408.387 530.713 412.093 530.713 416.04C530.713 419.933 529.993 423.587 528.553 427C527.166 430.36 525.246 433.373 522.793 436.04C520.339 438.653 517.486 440.707 514.233 442.2C511.033 443.64 507.593 444.36 503.913 444.36ZM503.433 437.08C506.206 437.08 508.793 436.547 511.193 435.48C513.646 434.413 515.779 432.92 517.593 431C519.406 429.027 520.819 426.787 521.833 424.28C522.899 421.72 523.433 418.947 523.433 415.96C523.433 413.08 522.899 410.387 521.833 407.88C520.819 405.32 519.379 403.08 517.513 401.16C515.699 399.187 513.593 397.64 511.193 396.52C508.793 395.4 506.233 394.84 503.513 394.84C500.793 394.84 498.233 395.4 495.833 396.52C493.433 397.64 491.299 399.16 489.433 401.08C487.619 403 486.179 405.24 485.113 407.8C484.099 410.36 483.593 413.107 483.593 416.04C483.593 418.92 484.099 421.64 485.113 424.2C486.179 426.76 487.619 429 489.433 430.92C491.299 432.84 493.406 434.36 495.753 435.48C498.153 436.547 500.713 437.08 503.433 437.08ZM605.421 387.96C606.114 387.96 606.674 388.04 607.101 388.2C607.581 388.36 607.954 388.68 608.221 389.16C608.488 389.587 608.621 390.307 608.621 391.32C608.621 392.28 608.461 393 608.141 393.48C607.874 393.96 607.501 394.28 607.021 394.44C606.541 394.547 605.954 394.6 605.261 394.6H588.701V440.28C588.701 440.973 588.594 441.587 588.381 442.12C588.221 442.653 587.874 443.053 587.341 443.32C586.861 443.64 586.114 443.8 585.101 443.8C584.034 443.8 583.234 443.64 582.701 443.32C582.221 443.053 581.901 442.653 581.741 442.12C581.634 441.533 581.581 440.893 581.581 440.2V394.6H564.781C564.088 394.6 563.501 394.547 563.021 394.44C562.541 394.28 562.168 393.96 561.901 393.48C561.634 393 561.501 392.28 561.501 391.32C561.501 390.307 561.608 389.587 561.821 389.16C562.088 388.68 562.461 388.36 562.941 388.2C563.474 388.04 564.061 387.96 564.701 387.96H605.421ZM666.9 444.36C663.114 444.36 659.54 443.64 656.18 442.2C652.874 440.76 649.94 438.76 647.38 436.2C644.874 433.587 642.9 430.6 641.46 427.24C640.02 423.88 639.3 420.253 639.3 416.36C639.3 412.413 639.994 408.707 641.38 405.24C642.767 401.72 644.687 398.653 647.14 396.04C649.647 393.427 652.527 391.373 655.78 389.88C659.034 388.387 662.5 387.64 666.18 387.64C670.02 387.64 673.594 388.36 676.9 389.8C680.26 391.24 683.167 393.267 685.62 395.88C688.127 398.44 690.1 401.453 691.54 404.92C692.98 408.387 693.7 412.093 693.7 416.04C693.7 419.933 692.98 423.587 691.54 427C690.154 430.36 688.234 433.373 685.78 436.04C683.327 438.653 680.474 440.707 677.22 442.2C674.02 443.64 670.58 444.36 666.9 444.36ZM666.42 437.08C669.194 437.08 671.78 436.547 674.18 435.48C676.634 434.413 678.767 432.92 680.58 431C682.394 429.027 683.807 426.787 684.82 424.28C685.887 421.72 686.42 418.947 686.42 415.96C686.42 413.08 685.887 410.387 684.82 407.88C683.807 405.32 682.367 403.08 680.5 401.16C678.687 399.187 676.58 397.64 674.18 396.52C671.78 395.4 669.22 394.84 666.5 394.84C663.78 394.84 661.22 395.4 658.82 396.52C656.42 397.64 654.287 399.16 652.42 401.08C650.607 403 649.167 405.24 648.1 407.8C647.087 410.36 646.58 413.107 646.58 416.04C646.58 418.92 647.087 421.64 648.1 424.2C649.167 426.76 650.607 429 652.42 430.92C654.287 432.84 656.394 434.36 658.74 435.48C661.14 436.547 663.7 437.08 666.42 437.08ZM757.814 443.96C753.654 443.96 749.921 443.293 746.614 441.96C743.307 440.573 740.454 438.627 738.054 436.12C735.707 433.56 733.894 430.493 732.614 426.92C731.334 423.347 730.694 419.373 730.694 415C730.694 410.84 731.334 407.08 732.614 403.72C733.947 400.36 735.841 397.48 738.294 395.08C740.747 392.68 743.681 390.813 747.094 389.48C750.507 388.093 754.347 387.373 758.614 387.32C760.267 387.32 761.947 387.48 763.654 387.8C765.414 388.12 767.094 388.573 768.694 389.16C770.294 389.747 771.734 390.44 773.014 391.24C773.921 391.827 774.694 392.44 775.334 393.08C775.974 393.667 776.321 394.28 776.374 394.92C776.427 395.24 776.374 395.64 776.214 396.12C776.054 396.6 775.841 397.053 775.574 397.48C775.147 398.12 774.667 398.6 774.134 398.92C773.654 399.187 773.174 399.32 772.694 399.32C772.481 399.32 772.107 399.187 771.574 398.92C771.041 398.653 770.374 398.253 769.574 397.72C768.667 397.187 767.601 396.68 766.374 396.2C765.201 395.72 763.921 395.347 762.534 395.08C761.147 394.813 759.707 394.68 758.214 394.68C754.107 394.68 750.534 395.507 747.494 397.16C744.454 398.813 742.107 401.187 740.454 404.28C738.854 407.373 738.027 411.027 737.974 415.24C738.027 419.613 738.881 423.4 740.534 426.6C742.187 429.8 744.507 432.28 747.494 434.04C750.534 435.8 754.081 436.68 758.134 436.68C759.467 436.68 760.827 436.573 762.214 436.36C763.601 436.147 764.961 435.853 766.294 435.48C767.681 435.053 768.961 434.547 770.134 433.96V418.52H756.134C755.441 418.52 754.827 418.44 754.294 418.28C753.814 418.12 753.441 417.8 753.174 417.32C752.961 416.84 752.854 416.12 752.854 415.16C752.854 414.2 752.987 413.48 753.254 413C753.521 412.52 753.894 412.2 754.374 412.04C754.854 411.88 755.441 411.8 756.134 411.8H773.494C774.561 411.8 775.361 411.987 775.894 412.36C776.427 412.733 776.801 413.213 777.014 413.8C777.281 414.333 777.414 415 777.414 415.8V435.48C777.414 436.333 776.934 437.24 775.974 438.2C775.067 439.107 773.761 439.96 772.054 440.76C770.827 441.4 769.441 441.96 767.894 442.44C766.401 442.92 764.801 443.293 763.094 443.56C761.387 443.827 759.627 443.96 757.814 443.96ZM822.855 443.8C821.841 443.8 821.068 443.64 820.535 443.32C820.001 443.053 819.655 442.653 819.495 442.12C819.388 441.533 819.335 440.867 819.335 440.12V391.48C819.335 390.787 819.415 390.2 819.575 389.72C819.788 389.187 820.135 388.76 820.615 388.44C821.148 388.12 821.921 387.96 822.935 387.96H840.615C843.228 387.96 845.601 388.36 847.735 389.16C849.921 389.907 851.815 391.027 853.415 392.52C855.015 394.013 856.241 395.907 857.095 398.2C858.001 400.44 858.455 403.053 858.455 406.04C858.455 407.907 858.161 409.853 857.575 411.88C856.988 413.853 856.081 415.72 854.855 417.48C853.681 419.24 852.161 420.707 850.295 421.88C848.428 423.053 846.161 423.72 843.495 423.88H826.535V440.2C826.535 440.947 826.428 441.587 826.215 442.12C826.055 442.653 825.708 443.053 825.175 443.32C824.695 443.64 823.921 443.8 822.855 443.8ZM857.175 442.92C856.055 443.667 855.095 443.907 854.295 443.64C853.548 443.373 852.828 442.733 852.135 441.72L839.335 421.24L847.255 420.04L858.295 437.64C858.828 438.493 859.148 439.213 859.255 439.8C859.415 440.387 859.308 440.92 858.935 441.4C858.615 441.88 858.028 442.387 857.175 442.92ZM826.535 416.84H842.375C843.601 416.84 844.748 416.627 845.815 416.2C846.881 415.72 847.815 415.027 848.615 414.12C849.415 413.213 850.055 412.093 850.535 410.76C851.015 409.427 851.255 407.827 851.255 405.96C851.255 403.667 850.828 401.72 849.975 400.12C849.175 398.52 847.975 397.32 846.375 396.52C844.775 395.667 842.801 395.24 840.455 395.24H826.535V416.84ZM947.592 438.68C948.018 439.48 948.232 440.173 948.232 440.76C948.285 441.293 948.125 441.8 947.752 442.28C947.378 442.707 946.792 443.107 945.992 443.48C944.712 444.067 943.698 444.2 942.952 443.88C942.258 443.56 941.618 442.787 941.032 441.56L921.032 399L901.192 441.48C900.605 442.707 899.938 443.48 899.192 443.8C898.498 444.12 897.485 443.987 896.152 443.4C895.352 443.08 894.765 442.68 894.392 442.2C894.072 441.72 893.938 441.133 893.992 440.44C894.098 439.747 894.365 438.947 894.792 438.04L917.752 390.12C918.072 389.48 918.525 388.973 919.112 388.6C919.752 388.173 920.418 387.96 921.112 387.96C921.592 387.96 922.045 388.04 922.472 388.2C922.898 388.36 923.272 388.6 923.592 388.92C923.912 389.24 924.178 389.667 924.392 390.2L947.592 438.68ZM905.992 427.88L908.712 421.72H933.512L936.152 427.88H905.992ZM988.72 443.8C987.706 443.8 986.933 443.64 986.4 443.32C985.92 443.053 985.6 442.653 985.44 442.12C985.28 441.533 985.2 440.867 985.2 440.12V391.56C985.2 390.867 985.28 390.253 985.44 389.72C985.653 389.187 986.026 388.76 986.56 388.44C987.093 388.12 987.84 387.96 988.8 387.96H1006.32C1008.88 387.96 1011.23 388.36 1013.36 389.16C1015.55 389.907 1017.44 391.08 1019.04 392.68C1020.69 394.227 1021.97 396.12 1022.88 398.36C1023.79 400.6 1024.24 403.187 1024.24 406.12C1024.24 409 1023.79 411.56 1022.88 413.8C1021.97 416.04 1020.69 417.933 1019.04 419.48C1017.39 420.973 1015.47 422.12 1013.28 422.92C1011.15 423.72 1008.8 424.12 1006.24 424.12H992.48V440.2C992.48 440.947 992.373 441.587 992.16 442.12C992 442.653 991.653 443.053 991.12 443.32C990.64 443.64 989.84 443.8 988.72 443.8ZM992.48 416.84H1006.32C1008.45 416.84 1010.32 416.44 1011.92 415.64C1013.52 414.787 1014.77 413.56 1015.68 411.96C1016.59 410.307 1017.04 408.307 1017.04 405.96C1017.04 403.72 1016.61 401.8 1015.76 400.2C1014.91 398.6 1013.65 397.373 1012 396.52C1010.4 395.667 1008.48 395.24 1006.24 395.24H992.48V416.84ZM1103.57 443.8C1102.55 443.8 1101.78 443.64 1101.25 443.32C1100.77 443.053 1100.45 442.653 1100.29 442.12C1100.13 441.533 1100.05 440.867 1100.05 440.12V391.56C1100.05 390.813 1100.13 390.173 1100.29 389.64C1100.45 389.107 1100.79 388.707 1101.33 388.44C1101.86 388.12 1102.63 387.96 1103.65 387.96C1104.71 387.96 1105.49 388.12 1105.97 388.44C1106.5 388.707 1106.85 389.107 1107.01 389.64C1107.17 390.173 1107.25 390.84 1107.25 391.64V440.2C1107.25 440.947 1107.14 441.587 1106.93 442.12C1106.77 442.653 1106.42 443.053 1105.89 443.32C1105.41 443.64 1104.63 443.8 1103.57 443.8ZM1067.57 443.8C1066.5 443.8 1065.7 443.64 1065.17 443.32C1064.69 443.053 1064.37 442.653 1064.21 442.12C1064.05 441.533 1063.97 440.867 1063.97 440.12V391.56C1063.97 390.813 1064.05 390.173 1064.21 389.64C1064.42 389.107 1064.77 388.707 1065.25 388.44C1065.78 388.12 1066.58 387.96 1067.65 387.96C1068.66 387.96 1069.41 388.12 1069.89 388.44C1070.42 388.707 1070.77 389.107 1070.93 389.64C1071.09 390.173 1071.17 390.84 1071.17 391.64V440.2C1071.17 440.947 1071.09 441.587 1070.93 442.12C1070.77 442.653 1070.42 443.053 1069.89 443.32C1069.35 443.64 1068.58 443.8 1067.57 443.8ZM1067.89 418.52V411.8H1101.33L1101.25 418.52H1067.89ZM1190.41 388.2C1191.53 389 1192.14 389.747 1192.25 390.44C1192.41 391.133 1192.14 391.96 1191.45 392.92L1172.65 421.48V440.28C1172.65 440.973 1172.57 441.613 1172.41 442.2C1172.25 442.733 1171.9 443.133 1171.37 443.4C1170.89 443.72 1170.12 443.88 1169.05 443.88C1167.98 443.88 1167.18 443.72 1166.65 443.4C1166.17 443.133 1165.82 442.707 1165.61 442.12C1165.45 441.533 1165.37 440.867 1165.37 440.12V421.4L1146.49 393.08C1145.85 392.12 1145.61 391.293 1145.77 390.6C1145.93 389.853 1146.57 389.08 1147.69 388.28C1148.49 387.747 1149.16 387.427 1149.69 387.32C1150.28 387.16 1150.81 387.24 1151.29 387.56C1151.77 387.827 1152.22 388.333 1152.65 389.08L1168.97 414.68L1185.37 389.08C1185.85 388.333 1186.3 387.827 1186.73 387.56C1187.21 387.293 1187.74 387.213 1188.33 387.32C1188.92 387.373 1189.61 387.667 1190.41 388.2Z" fill="white"/>
</svg>
